<?xml version="1.0" encoding="UTF-8" standalone="no"?>
<!-- Created with Inkscape (http://www.inkscape.org/) -->

<svg
   width="244.99597mm"
   height="46.264885mm"
   viewBox="0 0 244.99597 46.264885"
   version="1.1"
   id="svg1"
   xml:space="preserve"
   inkscape:version="1.3 (0e150ed, 2023-07-21)"
   sodipodi:docname="logo_flatiron_white.svg"
   xmlns:inkscape="http://www.inkscape.org/namespaces/inkscape"
   xmlns:sodipodi="http://sodipodi.sourceforge.net/DTD/sodipodi-0.dtd"
   xmlns="http://www.w3.org/2000/svg"
   xmlns:svg="http://www.w3.org/2000/svg"><sodipodi:namedview
     id="namedview1"
     pagecolor="#ffffff"
     bordercolor="#000000"
     borderopacity="0.25"
     inkscape:showpageshadow="2"
     inkscape:pageopacity="0.0"
     inkscape:pagecheckerboard="0"
     inkscape:deskcolor="#d1d1d1"
     inkscape:document-units="mm"
     inkscape:zoom="0.92266881"
     inkscape:cx="419.97735"
     inkscape:cy="84.537376"
     inkscape:window-width="1312"
     inkscape:window-height="449"
     inkscape:window-x="0"
     inkscape:window-y="44"
     inkscape:window-maximized="0"
     inkscape:current-layer="layer1" /><defs
     id="defs1"><clipPath
       clipPathUnits="userSpaceOnUse"
       id="clipPath120"><path
         d="M 0,0 H 900 V 612 H 0 Z"
         transform="translate(-795.27009,-288.56001)"
         id="path120" /></clipPath><clipPath
       clipPathUnits="userSpaceOnUse"
       id="clipPath126"><path
         d="M 0,0 H 900 V 612 H 0 Z"
         transform="translate(-761.66612,-282.3793)"
         id="path126" /></clipPath><clipPath
       clipPathUnits="userSpaceOnUse"
       id="clipPath131"><path
         d="M 0,0 H 900 V 612 H 0 Z"
         transform="translate(-797.76872,-282.45301)"
         id="path131" /></clipPath><clipPath
       clipPathUnits="userSpaceOnUse"
       id="clipPath135"><path
         d="M 0,0 H 900 V 612 H 0 Z"
         transform="translate(-703.52672,-302.70001)"
         id="path135" /></clipPath></defs><g
     inkscape:label="Layer 1"
     inkscape:groupmode="layer"
     id="layer1"
     transform="translate(9.186129,-148.66423)"><g
       id="g1"
       transform="matrix(5.9077572,0,0,5.9077572,-547.85202,-773.65539)"
       style="stroke-width:0.16927"><g
         id="g113"
         transform="matrix(0.26458333,0,0,0.26458333,-157.00916,47.096242)"
         style="stroke-width:0.16927"><path
           id="path114"
           d="M 0,0 V 14.14 H 8.237 V 11.649 H 3.008 V 8.08 H 7.137 V 5.634 H 3.008 V 0 Z"
           style="fill:#ffffff;fill-opacity:1;fill-rule:nonzero;stroke:none;stroke-width:0.16927"
           transform="matrix(1.3333333,0,0,-1.3333333,991.47547,431.25333)" /></g><g
         id="g114"
         transform="matrix(0.26458333,0,0,0.26458333,-157.00916,47.096242)"
         style="stroke-width:0.16927"><path
           id="path115"
           d="M 0,0 V -11.649 H 5.387 V -14.14 H -3.03 V 0 Z"
           style="fill:#ffffff;fill-opacity:1;fill-rule:nonzero;stroke:none;stroke-width:0.16927"
           transform="matrix(1.3333333,0,0,-1.3333333,1007.9932,412.4)" /></g><g
         id="g115"
         transform="matrix(0.26458333,0,0,0.26458333,-157.00916,47.096242)"
         style="stroke-width:0.16927"><path
           id="path116"
           d="M 0,0 4.062,-14.14 H 1.01 l -0.875,3.255 h -4.13 L -4.893,-14.14 H -7.699 L -3.636,0 Z m -3.344,-8.506 h 2.828 l -1.347,5.05 h -0.09 z"
           style="fill:#ffffff;fill-opacity:1;fill-rule:nonzero;stroke:none;stroke-width:0.16927"
           transform="matrix(1.3333333,0,0,-1.3333333,1026.2344,412.4)" /></g><g
         id="g116"
         transform="matrix(0.26458333,0,0,0.26458333,-157.00916,47.096242)"
         style="stroke-width:0.16927"><path
           id="path117"
           d="M 0,0 V 11.649 H -3.591 V 14.14 H 6.666 V 11.649 H 3.008 V 0 Z"
           style="fill:#ffffff;fill-opacity:1;fill-rule:nonzero;stroke:none;stroke-width:0.16927"
           transform="matrix(1.3333333,0,0,-1.3333333,1034.4461,431.25333)" /></g><g
         id="g117"
         transform="matrix(0.26458333,0,0,0.26458333,-157.00916,47.096242)"
         style="stroke-width:0.16927"><path
           id="path118"
           d="m 786.652,288.56 h -3.03 v 14.14 h 3.03 z"
           style="fill:#ffffff;fill-opacity:1;fill-rule:nonzero;stroke:none;stroke-width:0.16927"
           transform="matrix(1.3333333,0,0,-1.3333333,0,816)" /></g><g
         id="g118"
         transform="matrix(0.26458333,0,0,0.26458333,-157.00916,47.096242)"
         style="stroke-width:0.16927"><path
           id="path119"
           d="M 0,0 C -0.292,0.584 -0.449,1.391 -0.539,3.142 -0.628,4.579 -1.01,5.23 -2.357,5.23 H -3.995 V 0 h -2.963 v 14.14 h 4.826 c 3.434,0 5.05,-1.683 5.05,-4.332 C 2.918,7.833 1.773,6.621 0.449,6.307 1.773,5.903 2.267,5.005 2.402,3.277 2.536,1.391 2.626,0.651 3.052,0 Z m -2.244,7.586 c 1.526,0 2.199,0.651 2.199,2.043 0,1.301 -0.673,2.087 -2.199,2.087 h -1.751 v -4.13 z"
           style="fill:#ffffff;fill-opacity:1;fill-rule:nonzero;stroke:none;stroke-width:0.16927"
           transform="matrix(1.3333333,0,0,-1.3333333,1060.3601,431.25333)"
           clip-path="url(#clipPath120)" /></g><g
         id="g120"
         transform="matrix(0.26458333,0,0,0.26458333,-157.00916,47.096242)"
         style="stroke-width:0.16927"><path
           id="path121"
           d="m 0,0 c 0,-4.197 -1.773,-6.868 -5.387,-6.868 -3.613,0 -5.386,2.671 -5.386,6.868 v 0.898 c 0,4.197 1.773,6.868 5.386,6.868 C -1.773,7.766 0,5.095 0,0.898 Z m -3.097,1.504 c 0,2.514 -0.763,3.748 -2.29,3.748 -1.526,0 -2.289,-1.234 -2.289,-3.748 v -2.11 c 0,-2.514 0.763,-3.748 2.289,-3.748 1.527,0 2.29,1.234 2.29,3.748 z"
           style="fill:#ffffff;fill-opacity:1;fill-rule:nonzero;stroke:none;stroke-width:0.16927"
           transform="matrix(1.3333333,0,0,-1.3333333,1079.6612,422.41333)" /></g><g
         id="g121"
         transform="matrix(0.26458333,0,0,0.26458333,-157.00916,47.096242)"
         style="stroke-width:0.16927"><path
           id="path122"
           d="M 0,0 H 0.09 V 8.372 H 2.851 V -5.768 H 0.494 l -4.848,8.91 h -0.09 v -8.91 h -2.783 v 14.14 h 2.85 z"
           style="fill:#ffffff;fill-opacity:1;fill-rule:nonzero;stroke:none;stroke-width:0.16927"
           transform="matrix(1.3333333,0,0,-1.3333333,1090.9721,423.56227)" /></g><g
         id="g122"
         transform="matrix(0.26458333,0,0,0.26458333,-157.00916,47.096242)"
         style="stroke-width:0.16927"><path
           id="path123"
           d="m 743.606,280.838 h 0.583 v 4.222 h -0.583 z"
           style="fill:#ffffff;fill-opacity:1;fill-rule:nonzero;stroke:none;stroke-width:0.16927"
           transform="matrix(1.3333333,0,0,-1.3333333,0,816)" /></g><g
         id="g123"
         transform="matrix(0.26458333,0,0,0.26458333,-157.00916,47.096242)"
         style="stroke-width:0.16927"><path
           id="path124"
           d="M 0,0 V 3.23 H 0.543 V -0.992 H 0.08 L -2.373,2.399 V -0.992 H -2.916 V 3.23 h 0.604 z"
           style="fill:#ffffff;fill-opacity:1;fill-rule:nonzero;stroke:none;stroke-width:0.16927"
           transform="matrix(1.3333333,0,0,-1.3333333,1005.5341,440.22693)" /></g><g
         id="g124"
         transform="matrix(0.26458333,0,0,0.26458333,-157.00916,47.096242)"
         style="stroke-width:0.16927"><path
           id="path125"
           d="m 0,0 c 0.033,-0.771 0.563,-1.166 1.273,-1.166 0.63,0 1.026,0.268 1.026,0.731 0,0.388 -0.255,0.576 -0.804,0.683 L 0.657,0.409 c -0.624,0.121 -1.053,0.456 -1.053,1.112 0,0.738 0.584,1.24 1.508,1.24 1.059,0 1.669,-0.563 1.676,-1.514 L 2.259,1.22 C 2.238,1.917 1.816,2.313 1.119,2.313 0.509,2.313 0.167,2.024 0.167,1.555 0.167,1.139 0.442,1.005 0.932,0.912 L 1.696,0.764 c 0.77,-0.147 1.159,-0.483 1.159,-1.16 0,-0.777 -0.67,-1.226 -1.582,-1.226 -1.039,0 -1.796,0.57 -1.796,1.589 z"
           style="fill:#ffffff;fill-opacity:1;fill-rule:nonzero;stroke:none;stroke-width:0.16927"
           transform="matrix(1.3333333,0,0,-1.3333333,1015.5548,439.49427)"
           clip-path="url(#clipPath126)" /></g><g
         id="g126"
         transform="matrix(0.26458333,0,0,0.26458333,-157.00916,47.096242)"
         style="stroke-width:0.16927"><path
           id="path127"
           d="M 0,0 V 3.74 H -1.535 V 4.222 H 2.138 V 3.74 H 0.576 V 0 Z"
           style="fill:#ffffff;fill-opacity:1;fill-rule:nonzero;stroke:none;stroke-width:0.16927"
           transform="matrix(1.3333333,0,0,-1.3333333,1029.4633,441.54947)" /></g><g
         id="g127"
         transform="matrix(0.26458333,0,0,0.26458333,-157.00916,47.096242)"
         style="stroke-width:0.16927"><path
           id="path128"
           d="m 780.679,280.838 h 0.583 v 4.222 h -0.583 z"
           style="fill:#ffffff;fill-opacity:1;fill-rule:nonzero;stroke:none;stroke-width:0.16927"
           transform="matrix(1.3333333,0,0,-1.3333333,0,816)" /></g><g
         id="g128"
         transform="matrix(0.26458333,0,0,0.26458333,-157.00916,47.096242)"
         style="stroke-width:0.16927"><path
           id="path129"
           d="M 0,0 V 3.74 H -1.535 V 4.222 H 2.138 V 3.74 H 0.576 V 0 Z"
           style="fill:#ffffff;fill-opacity:1;fill-rule:nonzero;stroke:none;stroke-width:0.16927"
           transform="matrix(1.3333333,0,0,-1.3333333,1052.3216,441.54947)" /></g><g
         id="g129"
         transform="matrix(0.26458333,0,0,0.26458333,-157.00916,47.096242)"
         style="stroke-width:0.16927"><path
           id="path130"
           d="m 0,0 v 2.607 h 0.576 v -2.614 c 0,-0.804 0.396,-1.199 1.133,-1.199 0.737,0 1.146,0.395 1.146,1.193 v 2.62 h 0.57 V 0 C 3.425,-1.233 2.661,-1.695 1.709,-1.695 0.757,-1.695 0,-1.233 0,0"
           style="fill:#ffffff;fill-opacity:1;fill-rule:nonzero;stroke:none;stroke-width:0.16927"
           transform="matrix(1.3333333,0,0,-1.3333333,1063.6916,439.396)"
           clip-path="url(#clipPath131)" /></g><g
         id="g131"
         transform="matrix(0.26458333,0,0,0.26458333,-157.00916,47.096242)"
         style="stroke-width:0.16927"><path
           id="path132"
           d="M 0,0 V 3.74 H -1.535 V 4.222 H 2.138 V 3.74 H 0.576 V 0 Z"
           style="fill:#ffffff;fill-opacity:1;fill-rule:nonzero;stroke:none;stroke-width:0.16927"
           transform="matrix(1.3333333,0,0,-1.3333333,1078.8152,441.54947)" /></g><g
         id="g132"
         transform="matrix(0.26458333,0,0,0.26458333,-157.00916,47.096242)"
         style="stroke-width:0.16927"><path
           id="path133"
           d="M 0,0 H -3.009 V 4.222 H -0.06 V 3.74 H -2.446 V 2.413 h 1.897 V 1.937 H -2.446 V 0.483 H 0 Z"
           style="fill:#ffffff;fill-opacity:1;fill-rule:nonzero;stroke:none;stroke-width:0.16927"
           transform="matrix(1.3333333,0,0,-1.3333333,1094.7729,441.54947)" /></g><g
         id="g133"
         transform="matrix(0.26458333,0,0,0.26458333,-157.00916,47.096242)"
         style="stroke-width:0.16927"><path
           id="path134"
           d="m 0,0 v -21.814 h 8.304 c -3.287,2.5 -5.411,6.451 -5.411,10.899 0,4.458 2.133,8.416 5.431,10.915"
           style="fill:#ffffff;fill-opacity:1;fill-rule:nonzero;stroke:none;stroke-width:0.16927"
           transform="matrix(1.3333333,0,0,-1.3333333,938.0356,412.4)"
           clip-path="url(#clipPath135)" /></g><g
         id="g135"
         transform="matrix(0.26458333,0,0,0.26458333,-157.00916,47.096242)"
         style="stroke-width:0.16927"><path
           id="path136"
           d="m 0,0 v -21.814 h -8.304 c 3.287,2.5 5.411,6.451 5.411,10.899 0,4.458 -2.133,8.416 -5.431,10.915"
           style="fill:#ffffff;fill-opacity:1;fill-rule:nonzero;stroke:none;stroke-width:0.16927"
           transform="matrix(1.3333333,0,0,-1.3333333,982.24933,412.4)" /></g><g
         id="g136"
         transform="matrix(0.26458333,0,0,0.26458333,-157.00916,47.096242)"
         style="stroke-width:0.16927"><path
           id="path137"
           d="m 0,0 c 0,5.149 4.174,9.322 9.322,9.322 5.149,0 9.323,-4.173 9.323,-9.322 0,-5.149 -4.174,-9.322 -9.323,-9.322 C 4.174,-9.322 0,-5.149 0,0"
           style="fill:#ffffff;fill-opacity:1;fill-rule:nonzero;stroke:none;stroke-width:0.16927"
           transform="matrix(1.3333333,0,0,-1.3333333,947.60707,426.94253)" /></g></g></g></svg>
