<?xml version="1.0" encoding="UTF-8" standalone="no"?>
<!DOCTYPE svg PUBLIC "-//W3C//DTD SVG 1.1//EN" "http://www.w3.org/Graphics/SVG/1.1/DTD/svg11.dtd">
<svg width="100%" height="100%" viewBox="0 0 945 945" version="1.1" xmlns="http://www.w3.org/2000/svg" xmlns:xlink="http://www.w3.org/1999/xlink" xml:space="preserve" xmlns:serif="http://www.serif.com/" style="fill-rule:evenodd;clip-rule:evenodd;stroke-linecap:round;stroke-linejoin:round;stroke-miterlimit:1.5;">
    <g transform="matrix(0.955468,0,0,1.00882,-548.291,-1074.07)">
        <ellipse cx="1064.1" cy="1539.99" rx="463.556" ry="439.041" style="fill:rgb(235,235,235);"/>
    </g>
    <g transform="matrix(0.888087,-0.888087,0.903492,0.903492,-793.548,383.511)">
        <path d="M660.525,396.58C463.202,396.58 303.239,553.876 303.239,747.911L660.525,747.911L660.525,396.58Z" style="fill:rgb(255,255,217);"/>
    </g>
    <g transform="matrix(1.19291,-0.00360395,0.00360395,1.19291,-886.204,-1659.27)">
        <g transform="matrix(0.83828,0.00253257,-0.00253257,0.83828,738.685,1393.17)">
            <path d="M355.034,493.816L368.125,500.362L355.034,506.907C358.307,503.634 358.307,497.089 355.034,493.816Z" style="fill:rgb(17,17,17);"/>
            <path d="M72.849,500.362L357.652,500.362" style="fill:none;stroke:rgb(17,17,17);stroke-width:4.36px;"/>
        </g>
    </g>
    <g transform="matrix(-0.888087,0.888087,-0.903492,-0.903492,1731.12,561.643)">
        <path d="M660.525,396.58C463.202,396.58 303.239,553.876 303.239,747.911L660.525,747.911L660.525,396.58Z" style="fill:rgb(237,248,177);"/>
    </g>
    <g transform="matrix(0.888087,0.888087,-0.903492,0.903492,557.853,-789.758)">
        <path d="M660.525,396.58C463.202,396.58 303.239,553.876 303.239,747.911L660.525,747.911L660.525,396.58Z" style="fill:rgb(127,205,187);"/>
    </g>
    <g transform="matrix(-0.888087,-0.888087,0.903492,-0.903492,379.721,1734.91)">
        <path d="M660.525,396.58C463.202,396.58 303.239,553.876 303.239,747.911L660.525,747.911L660.525,396.58Z" style="fill:rgb(199,233,180);"/>
    </g>
    <g transform="matrix(1.19291,0,0,0.697285,-348.003,-976.471)">
        <path d="M378.084,1963.09L378.084,2084.33" style="fill:none;stroke:rgb(17,17,17);stroke-width:6.4px;"/>
    </g>
    <g transform="matrix(1.19291,0,0,0.697285,-322.322,-976.471)">
        <path d="M378.084,1963.09L378.084,2084.33" style="fill:none;stroke:rgb(17,17,17);stroke-width:6.4px;"/>
    </g>
    <g transform="matrix(1.19291,0,0,0.697285,-238.691,-976.471)">
        <path d="M378.084,1963.09L378.084,2084.33" style="fill:none;stroke:rgb(17,17,17);stroke-width:6.4px;"/>
    </g>
    <g transform="matrix(1.19291,0,0,0.697285,-227.54,-976.471)">
        <path d="M378.084,1963.09L378.084,2084.33" style="fill:none;stroke:rgb(17,17,17);stroke-width:6.4px;"/>
    </g>
    <g transform="matrix(1.19291,0,0,0.697285,-109.341,-976.471)">
        <path d="M378.084,1963.09L378.084,2084.33" style="fill:none;stroke:rgb(17,17,17);stroke-width:6.4px;"/>
    </g>
    <g transform="matrix(1.19291,0,0,0.697285,-166.21,-976.471)">
        <path d="M378.084,1963.09L378.084,2084.33" style="fill:none;stroke:rgb(17,17,17);stroke-width:6.4px;"/>
    </g>
    <g transform="matrix(1.19291,0,0,0.697285,-227.54,-976.471)">
        <path d="M378.084,1963.09L378.084,2084.33" style="fill:none;stroke:rgb(17,17,17);stroke-width:6.4px;"/>
    </g>
    <g transform="matrix(1.19291,-0.00360395,0.00360395,1.19291,-886.204,-1659.27)">
        <g transform="matrix(0.83828,0.00253257,-0.00253257,0.83828,738.685,1393.17)">
            <path d="M355.034,493.816L368.125,500.362L355.034,506.907C358.307,503.634 358.307,497.089 355.034,493.816Z" style="fill:rgb(17,17,17);"/>
            <path d="M72.849,500.362L357.652,500.362" style="fill:none;stroke:rgb(17,17,17);stroke-width:4.36px;"/>
        </g>
    </g>
    <g transform="matrix(1.15152,-0.00347892,0.00347892,1.15152,-556.453,-1846.59)">
        <g transform="matrix(0.868408,0.00262359,-0.00262359,0.868408,478.383,1605.05)">
            <path d="M641.269,231.565L654.359,238.11L641.269,244.656C644.541,241.383 644.541,234.838 641.269,231.565Z" style="fill:rgb(17,17,17);"/>
            <path d="M369.328,238.11L643.887,238.11" style="fill:none;stroke:rgb(17,17,17);stroke-width:4.36px;"/>
        </g>
    </g>
    <g transform="matrix(1.19291,-0.00360395,0.00360395,1.19291,-359.53,-1659.27)">
        <g transform="matrix(0.83828,0.00253257,-0.00253257,0.83828,297.185,1391.84)">
            <path d="M881.708,493.816L894.799,500.362L881.708,506.907C884.981,503.634 884.981,497.089 881.708,493.816Z" style="fill:rgb(17,17,17);"/>
            <path d="M599.523,500.362L884.327,500.362" style="fill:none;stroke:rgb(17,17,17);stroke-width:4.36px;"/>
        </g>
    </g>
    <g transform="matrix(1.19291,0,0,0.464857,-92.3036,-127.119)">
        <path d="M378.084,1963.09L378.084,2084.33" style="fill:none;stroke:rgb(17,17,17);stroke-width:4.82px;"/>
    </g>
    <g transform="matrix(1.19291,0,0,0.464857,-66.622,-127.119)">
        <path d="M378.084,1963.09L378.084,2084.33" style="fill:none;stroke:rgb(17,17,17);stroke-width:4.82px;"/>
    </g>
    <g transform="matrix(1.19291,0,0,0.464857,17.0093,-127.119)">
        <path d="M378.084,1963.09L378.084,2084.33" style="fill:none;stroke:rgb(17,17,17);stroke-width:4.82px;"/>
    </g>
    <g transform="matrix(1.19291,0,0,0.464857,28.1602,-127.119)">
        <path d="M378.084,1963.09L378.084,2084.33" style="fill:none;stroke:rgb(17,17,17);stroke-width:4.82px;"/>
    </g>
    <g transform="matrix(1.19291,0,0,0.464857,146.359,-127.119)">
        <path d="M378.084,1963.09L378.084,2084.33" style="fill:none;stroke:rgb(17,17,17);stroke-width:4.82px;"/>
    </g>
    <g transform="matrix(1.19291,0,0,0.464857,89.4898,-127.119)">
        <path d="M378.084,1963.09L378.084,2084.33" style="fill:none;stroke:rgb(17,17,17);stroke-width:4.82px;"/>
    </g>
    <g transform="matrix(1.19291,0,0,0.464857,28.1602,-127.119)">
        <path d="M378.084,1963.09L378.084,2084.33" style="fill:none;stroke:rgb(17,17,17);stroke-width:4.82px;"/>
    </g>
    <g transform="matrix(1.19291,0,0,0.464857,-74.4722,-201.08)">
        <path d="M378.084,1963.09L378.084,2084.33" style="fill:none;stroke:rgb(17,17,17);stroke-width:4.82px;"/>
    </g>
    <g transform="matrix(1.19291,0,0,0.464857,-12.8135,-201.08)">
        <path d="M378.084,1963.09L378.084,2084.33" style="fill:none;stroke:rgb(17,17,17);stroke-width:4.82px;"/>
    </g>
    <g transform="matrix(1.19291,0,0,0.464857,28.1602,-201.08)">
        <path d="M378.084,1963.09L378.084,2084.33" style="fill:none;stroke:rgb(17,17,17);stroke-width:4.82px;"/>
    </g>
    <g transform="matrix(1.19291,0,0,0.464857,159.205,-201.08)">
        <path d="M378.084,1963.09L378.084,2084.33" style="fill:none;stroke:rgb(17,17,17);stroke-width:4.82px;"/>
    </g>
    <g transform="matrix(1.19291,0,0,0.464857,60.9437,-201.08)">
        <path d="M378.084,1963.09L378.084,2084.33" style="fill:none;stroke:rgb(17,17,17);stroke-width:4.82px;"/>
    </g>
    <g transform="matrix(1.19291,0,0,0.464857,28.1602,-201.08)">
        <path d="M378.084,1963.09L378.084,2084.33" style="fill:none;stroke:rgb(17,17,17);stroke-width:4.82px;"/>
    </g>
    <g transform="matrix(1.19291,0,0,0.464857,-83.0261,-265.263)">
        <path d="M378.084,1963.09L378.084,2084.33" style="fill:none;stroke:rgb(17,17,17);stroke-width:4.82px;"/>
    </g>
    <g transform="matrix(1.19291,0,0,0.464857,-43.7851,-265.263)">
        <path d="M378.084,1963.09L378.084,2084.33" style="fill:none;stroke:rgb(17,17,17);stroke-width:4.82px;"/>
    </g>
    <g transform="matrix(1.19291,0,0,0.464857,17.0093,-266.69)">
        <path d="M378.084,1963.09L378.084,2084.33" style="fill:none;stroke:rgb(17,17,17);stroke-width:4.82px;"/>
    </g>
    <g transform="matrix(1.19291,0,0,0.464857,132.086,-266.69)">
        <path d="M378.084,1963.09L378.084,2084.33" style="fill:none;stroke:rgb(17,17,17);stroke-width:4.82px;"/>
    </g>
    <g transform="matrix(1.19291,0,0,0.464857,114.468,-265.263)">
        <path d="M378.084,1963.09L378.084,2084.33" style="fill:none;stroke:rgb(17,17,17);stroke-width:4.82px;"/>
    </g>
    <g transform="matrix(1.19291,-0.00360395,0.00360395,1.19291,-630.505,-1303.97)">
        <g transform="matrix(0.83828,0.00253257,-0.00253257,0.83828,525.237,1094.69)">
            <path d="M610.734,849.11L623.824,855.655L610.734,862.201C614.006,858.928 614.006,852.383 610.734,849.11Z" style="fill:rgb(17,17,17);"/>
            <path d="M328.549,855.655L613.352,855.655" style="fill:none;stroke:rgb(17,17,17);stroke-width:4.36px;"/>
        </g>
    </g>
    <g transform="matrix(1.15153,0,0,1.15153,-891.153,-1523.3)">
        <path d="M1094.62,1513.08C1122.25,1480.17 1140.71,1403.73 1186.04,1454.86C1207.95,1475.5 1222.11,1502.2 1266.33,1505.38C1296.81,1506.39 1320.42,1499.55 1326.49,1472.67" style="fill:none;stroke:black;stroke-width:3.62px;"/>
    </g>
    <g transform="matrix(1.19291,0,0,2.73912,-993.039,-4318.28)">
        <rect x="1342.62" y="1719.77" width="47.361" height="34.172" style="fill:rgb(254,158,158);"/>
    </g>
    <g transform="matrix(2.22887,0,0,2.73912,-2290.26,-4318.28)">
        <rect x="1342.62" y="1719.77" width="47.361" height="34.172" style="fill:rgb(254,158,158);"/>
    </g>
    <g transform="matrix(0.565064,0,0,2.73912,86.3228,-4318.28)">
        <rect x="1342.62" y="1719.77" width="47.361" height="34.172" style="fill:rgb(254,158,158);"/>
    </g>
    <g transform="matrix(1.15153,0,0,1.15153,-891.153,-1523.3)">
        <g transform="matrix(0.868412,-0,-0,0.868412,773.888,1322.85)">
            <path d="M363.078,140.767L369.328,128.267L375.578,140.767C372.453,137.642 366.203,137.642 363.078,140.767Z"/>
            <path d="M369.328,238.11L369.328,138.267" style="fill:none;stroke:black;stroke-width:4.17px;"/>
        </g>
    </g>
</svg>
