<?xml version="1.0" encoding="UTF-8" standalone="no"?>
<!-- Generator: Adobe Illustrator 27.0.0, SVG Export Plug-In . SVG Version: 6.00 Build 0)  -->

<svg
   version="1.1"
   x="0px"
   y="0px"
   viewBox="0 0 2395.187 570.80176"
   xml:space="preserve"
   id="svg45"
   sodipodi:docname="Pynapple_logo_final.svg"
   width="2395.187"
   height="570.80176"
   inkscape:version="1.3 (0e150ed, 2023-07-21)"
   xmlns:inkscape="http://www.inkscape.org/namespaces/inkscape"
   xmlns:sodipodi="http://sodipodi.sourceforge.net/DTD/sodipodi-0.dtd"
   xmlns="http://www.w3.org/2000/svg"
   xmlns:svg="http://www.w3.org/2000/svg"><defs
   id="defs45" /><sodipodi:namedview
   id="namedview45"
   pagecolor="#ffffff"
   bordercolor="#000000"
   borderopacity="0.25"
   inkscape:showpageshadow="2"
   inkscape:pageopacity="0.0"
   inkscape:pagecheckerboard="0"
   inkscape:deskcolor="#d1d1d1"
   inkscape:zoom="0.11303767"
   inkscape:cx="1189.8688"
   inkscape:cy="291.93807"
   inkscape:window-width="1688"
   inkscape:window-height="809"
   inkscape:window-x="0"
   inkscape:window-y="44"
   inkscape:window-maximized="0"
   inkscape:current-layer="svg45" />&#10;<style
   type="text/css"
   id="style1">&#10;	.st0{fill:#FFFFFF;}&#10;	.st1{fill:#27262B;}&#10;	.st2{fill:none;}&#10;	.st3{fill:#FFA912;}&#10;	.st4{fill:#00BA12;}&#10;	.st5{fill:#3DD358;}&#10;</style>&#10;<g
   id="Layer_2"
   transform="translate(-315.38305,-225.51821)">&#10;	&#10;</g>&#10;<g
   id="Layer_1"
   transform="translate(-315.38305,-225.51821)">&#10;	<g
   id="g45">&#10;		<g
   id="g8">&#10;			<path
   class="st1"
   d="m 928.57,549.07 h -62.7 V 681.59 H 834.74 V 370.75 h 93.83 c 72.04,0 104.95,38.24 104.95,89.38 0,50.25 -32.02,88.94 -104.95,88.94 z m 0,-26.68 c 52.47,0 72.93,-24.02 72.93,-62.26 0,-40.03 -20.46,-63.15 -72.93,-63.15 h -62.7 v 125.41 z"
   id="path1" />&#10;			<path
   class="st1"
   d="m 1253.68,438.79 h 32.01 l -144.08,357.09 h -32.47 l 47.14,-115.62 -99.61,-241.47 h 34.24 l 82.72,207.23 z"
   id="path2" />&#10;			<path
   class="st1"
   d="m 1501.21,542.85 c 0,-53.81 -29.34,-81.38 -73.81,-81.38 -45.36,0 -76.94,28.46 -76.94,87.61 V 681.6 h -31.13 V 438.8 h 31.13 v 41.35 c 15.56,-30.23 46.69,-45.8 82.72,-45.8 55.14,0 98.73,33.8 98.73,104.95 v 142.3 h -30.69 V 542.85 Z"
   id="path3" />&#10;			<path
   class="st1"
   d="m 1680.46,435.23 c 48.91,0 82.27,26.23 96.05,56.92 v -53.36 h 31.13 v 242.8 h -31.13 v -53.81 c -14.22,31.13 -48.03,57.37 -96.49,57.37 -66.26,0 -115.63,-49.36 -115.63,-125.41 0,-76.05 49.36,-124.51 116.07,-124.51 z m 5.78,27.13 c -51.14,0 -90.28,35.57 -90.28,97.39 0,61.37 39.14,98.28 90.28,98.28 49.8,0 90.27,-37.35 90.27,-97.83 0,-60.49 -40.47,-97.84 -90.27,-97.84 z"
   id="path4" />&#10;			<path
   class="st1"
   d="m 1982.54,435.23 c 66.26,0 115.62,48.47 115.62,124.51 0,76.04 -49.36,125.41 -115.62,125.41 -48.48,0 -82.27,-26.68 -96.51,-56.92 v 168.09 h -30.68 V 438.79 h 30.68 v 53.36 c 14.24,-30.69 48.04,-56.92 96.51,-56.92 z m -6.23,27.13 c -49.36,0 -90.27,37.35 -90.27,97.83 0,60.48 40.91,97.83 90.27,97.83 51.14,0 90.28,-36.91 90.28,-98.28 0,-61.81 -39.14,-97.38 -90.28,-97.38 z"
   id="path5" />&#10;			<path
   class="st1"
   d="m 2260.5,435.23 c 66.26,0 115.62,48.47 115.62,124.51 0,76.04 -49.36,125.41 -115.62,125.41 -48.48,0 -82.27,-26.68 -96.51,-56.92 v 168.09 h -30.68 V 438.79 H 2164 v 53.36 c 14.23,-30.69 48.03,-56.92 96.5,-56.92 z m -6.22,27.13 c -49.37,0 -90.28,37.35 -90.28,97.83 0,60.48 40.91,97.83 90.28,97.83 51.13,0 90.27,-36.91 90.27,-98.28 0,-61.81 -39.14,-97.38 -90.27,-97.38 z"
   id="path6" />&#10;			<path
   class="st1"
   d="m 2411.29,352.51 h 31.13 v 329.08 h -31.13 z"
   id="path7" />&#10;			<path
   class="st1"
   d="m 2595.85,685.15 c -68.94,0 -119.19,-48.03 -119.19,-124.96 0,-77.38 49.37,-124.96 119.19,-124.96 71.15,0 114.72,50.7 114.72,112.51 0,9.78 0,16.01 -0.88,24.46 h -201.46 c 2.67,56.92 42.25,86.72 87.61,86.72 41.35,0 69.37,-21.79 78.26,-54.25 h 32.9 c -11.1,45.8 -50.24,80.48 -111.15,80.48 z m -87.62,-138.3 H 2679 c 1.34,-56.48 -39.57,-84.94 -84.49,-84.94 -44.03,0 -82.72,28.46 -86.28,84.94 z"
   id="path8" />&#10;		</g>&#10;		<g
   id="g44">&#10;			<path
   class="st2"
   d="m 522.85,532.74 c 0.1,0.14 0.19,0.26 0.28,0.37 -0.09,-1.3 -0.46,-3.14 -0.79,-3.72 l -0.65,-0.04 c 0.05,1.23 0.13,2.46 0.21,3.68 z"
   id="path9" />&#10;			<path
   class="st2"
   d="m 523.91,529.5 -1.56,-0.11 c 0.13,0.16 0.51,0.41 1,0.35 0.23,-0.04 0.42,-0.13 0.56,-0.24 z"
   id="path10" />&#10;			<path
   class="st2"
   d="m 623.77,465.68 c -0.01,0.02 -0.01,0.04 -0.02,0.05 h 0.02 c 0.01,-0.01 0.01,-0.03 0,-0.05 z"
   id="path11" />&#10;			<path
   class="st2"
   d="m 508.42,404.67 -0.58,0.18 c 0.07,0.01 0.14,0 0.22,-0.02 0.15,-0.03 0.27,-0.09 0.36,-0.16 z"
   id="path12" />&#10;			<path
   class="st2"
   d="m 615.64,642.95 c -0.08,-2.07 -0.17,-4.15 -0.28,-6.22 -0.92,1.84 -1.08,3.73 0.28,6.22 z"
   id="path13" />&#10;			<path
   class="st3"
   d="m 497.09,453.49 1.89,0.05 c 0,-0.08 0.01,-0.15 0.01,-0.23 -0.85,0.06 -1.69,0.13 -2.54,0.2 0.11,0.87 0.22,1.77 0.33,2.72 h 0.07 c 0.08,-0.91 0.16,-1.82 0.24,-2.74 z"
   id="path14" />&#10;			<path
   class="st3"
   d="m 512.26,465.35 c 0.06,-1 0.12,-2 0.16,-3 l 1.24,-0.02 c 0.13,-3.06 0.29,-6.15 0.47,-9.24 -3.81,-0.16 -7.63,-0.15 -11.46,0.02 0.23,5.56 0.46,10.59 0.72,15.35 h 1.05 c 0.18,-1.17 0.35,-2.33 0.5,-3.51 l 2.56,0.1 c 0.02,0.42 0.04,0.84 0.06,1.25 0.21,-2.37 0.41,-5.12 0.58,-8.7 l 0.57,-0.05 c 0.04,-0.68 0.09,-1.35 0.14,-2.02 l 2.57,0.04 c 0.09,1.93 0.17,3.86 0.23,5.78 l 0.4,-0.08 c 0.38,1.06 0.35,1.88 0.15,2.5 0.03,0.54 0.04,1.06 0.06,1.58 z"
   id="path15" />&#10;			<path
   class="st3"
   d="m 640.83,626.87 0.69,-0.01 c 0.01,-0.21 0.02,-0.43 0.03,-0.67 l 2.57,0.02 c 0.03,1.1 0.07,2.21 0.13,3.31 l 1.29,-0.02 c 0.36,3.69 0.62,7.57 0.8,11.78 0.12,-4.58 0.31,-9.18 0.56,-13.76 l 1.19,0.02 c 0,-0.05 0.01,-0.1 0.01,-0.16 -0.04,-10.98 -0.09,-24.23 -0.12,-40.43 0,-1.41 -0.04,-2.83 -0.1,-4.25 -0.46,6.6 -0.82,13.25 -0.89,19.85 l -2.57,0.07 c -0.55,-8.57 -0.73,-17.26 -0.85,-25.76 h -1.22 c 0.04,1.11 0.05,2.14 -0.02,2.8 -1.93,6.22 -2.08,22.79 -1.83,30.26 0.02,0.45 0.04,0.91 0.06,1.36 l -2.57,0.12 c -0.02,-0.36 -0.04,-0.77 -0.05,-1.23 -0.34,-8.36 -0.58,-16.73 -0.82,-25.09 -0.13,-4.48 -0.26,-9.05 -0.41,-13.63 l -1.57,-0.03 c -0.04,-1.6 -0.08,-3.18 -0.13,-4.72 l -1.65,0.04 c -0.06,-0.9 -0.11,-1.8 -0.16,-2.7 l -0.79,-0.09 c -0.02,0.47 -0.03,0.93 -0.05,1.4 l -1.15,0.02 c -0.09,2.35 -0.16,4.94 -0.2,6.51 -0.04,1.36 -0.06,2.44 -0.09,2.96 l -2.57,0.05 c -0.11,-1.32 -0.22,-2.64 -0.31,-3.96 l -1.47,-0.1 c -0.12,-1.29 -0.02,-2.74 0.12,-4.01 l -0.84,-0.14 c -0.02,-0.87 -0.04,-1.75 -0.06,-2.62 l -0.53,0.03 c -0.02,0.32 -0.03,0.72 -0.04,1.25 l -2.57,0.02 c -0.14,-3.73 -0.26,-7.46 -0.35,-11.18 -0.43,-0.75 -0.81,-1.69 -1.14,-2.78 -0.09,2.17 -0.16,4.34 -0.22,6.5 l -1.07,0.01 c 0,0.02 0,0.05 -0.01,0.07 l -1.39,-0.06 h -0.1 c 0,0 0,0 0,-0.01 l -0.3,-0.01 c -0.02,0.29 -0.04,0.59 -0.05,0.88 -0.1,1.74 -0.2,3.49 -0.29,5.23 l -2.57,-0.02 c -0.07,-2.14 -0.13,-4.29 -0.21,-6.43 h -0.02 c -0.03,0.17 -0.06,0.35 -0.09,0.52 l -0.79,-0.05 c -0.04,1.12 -0.08,2.24 -0.11,3.36 -0.25,7.42 -0.5,14.84 -0.86,22.26 l -2.57,-0.04 c -0.08,-5.33 -0.22,-10.68 -0.42,-15.99 -0.1,0 -0.2,0 -0.3,-0.01 -0.86,-0.07 -1.23,-0.4 -1.38,-1.98 -0.16,2.39 -0.26,4.77 -0.32,7.15 l -1.79,-0.01 c 0,0.21 0.01,0.43 0.01,0.64 l -2.57,0.07 c -0.04,-0.9 -0.07,-1.8 -0.11,-2.7 l -1.79,0.01 c -0.11,5.13 -0.27,10.35 -0.53,15.56 l -2.57,-0.04 c -0.01,-0.64 -0.02,-1.28 -0.04,-1.92 l -0.66,0.04 c -0.13,-0.93 -0.25,-1.86 -0.37,-2.8 l -1.49,-0.03 c -0.29,2.64 -0.61,4.99 -0.97,7.72 -0.55,4.08 -1.22,9.17 -2.1,17.42 l -2.56,-0.07 c -0.16,-2.94 -0.32,-5.88 -0.48,-8.82 l -0.88,0.01 c -0.13,0.73 -0.25,1.46 -0.37,2.18 l -0.49,-0.01 c -0.26,7.6 -0.68,14.7 -1.29,21.58 l -1.07,-0.01 c -0.04,0.82 -0.09,1.63 -0.13,2.45 -0.34,6.16 -0.67,12.32 -0.93,18.49 l -2.49,0.01 c -0.01,0.65 -0.01,1.31 -0.01,1.96 l -2.57,0.07 c -0.04,-0.67 -0.07,-1.35 -0.11,-2.03 h -0.14 c -0.01,0.23 -0.03,0.46 -0.04,0.68 l -1.34,0.01 c -0.03,0.66 -0.06,1.32 -0.08,1.98 l -2.57,0.06 c -0.02,-0.24 -0.04,-0.47 -0.06,-0.71 l -1.02,-0.01 c -0.01,-0.22 -0.02,-0.45 -0.03,-0.67 l -2.47,-0.01 c -0.12,-3.7 -0.25,-7.15 -0.38,-10.42 -0.09,1.03 -0.18,2.04 -0.27,3.06 l -2.57,-0.1 c -0.12,-5.18 -0.24,-10.36 -0.37,-15.54 l -0.69,0.02 c -0.19,-3.05 -0.36,-6.19 -0.52,-9.48 l -1.26,0.03 c -0.02,-0.19 -0.16,-1.08 -0.32,-2.15 -0.2,6.72 -0.23,13.44 -0.25,20.03 -0.02,3.49 -0.03,6.98 -0.07,10.46 l -2.57,0.01 c -0.09,-4.47 -0.24,-8.74 -0.45,-12.87 h -0.49 c -0.02,0.9 -0.03,1.8 -0.05,2.7 l -2.57,0.02 c -0.03,-0.9 -0.06,-1.8 -0.09,-2.7 h -1.7 c -0.06,-1.62 -0.12,-3.2 -0.18,-4.73 l -1.96,-0.02 c -0.08,-3.12 -0.29,-6.28 -0.5,-9.37 l -1.27,0.05 c -0.1,-0.65 -0.19,-1.31 -0.29,-1.99 -0.16,3.89 -0.28,8.07 -0.36,12.66 l -2.57,0.06 c -0.03,-0.45 -0.06,-0.9 -0.09,-1.35 l -2.05,-0.04 -0.09,-2.65 -0.62,0.01 c -0.21,-2.39 -0.56,-4.81 -0.89,-7.16 -0.02,-0.11 -0.03,-0.22 -0.05,-0.34 l -1.2,0.01 c -0.03,-0.47 -0.06,-0.94 -0.09,-1.42 l -0.98,-0.01 c -0.03,-4.49 -0.13,-9.01 -0.28,-13.54 l -0.8,-0.02 c 0,-1.4 -0.02,-2.81 -0.05,-4.21 -0.07,0.99 -0.15,1.98 -0.23,2.97 h -2.56 c -0.19,-2.29 -0.36,-4.58 -0.5,-6.89 l -0.78,0.02 c -0.04,1.35 -0.06,2.7 -0.07,4.05 l -1.61,0.02 c -0.09,2.03 -0.14,4.06 -0.18,6.09 h -2.57 c -0.04,-1.94 -0.01,-3.87 0.02,-5.65 0.04,-2.81 0.09,-6.3 -0.28,-6.99 0.1,0.18 0.48,0.37 0.78,0.32 0,-0.04 0.01,-0.09 0.01,-0.13 l -1.59,-1.1 c -0.09,-7.57 -0.45,-15.49 -1.07,-23.61 l -1.06,0.03 c -0.03,-0.25 -0.05,-0.49 -0.08,-0.71 h -0.06 c -0.34,2.23 -0.68,4.52 -0.88,6.78 l -1.16,-0.01 c -0.11,4.08 -0.32,8.16 -0.62,12.19 l -0.43,0.87 c -0.97,1.91 -1.2,21.73 -1.3,30.19 l -0.04,3.39 -2.57,0.04 c -0.15,-3.16 -0.29,-6.32 -0.44,-9.48 h -0.2 c 0,0 0,0 0,0 l -0.61,0.06 c -0.13,2.27 -0.29,4.53 -0.46,6.74 l -2.1,0.03 c -0.01,0.21 -0.03,0.41 -0.04,0.62 l -2.57,-0.05 -0.06,-3.27 -0.91,-0.01 c -0.01,0.42 -0.02,0.84 -0.03,1.26 l -1.59,0.32 c 0.09,0.85 0.21,1.81 0.31,2.62 0.3,2.42 0.61,4.91 0.57,6.54 l -0.66,0.03 c -0.02,0.36 -0.03,0.8 -0.05,1.32 l -2.57,-0.01 c -0.01,-0.18 -0.01,-0.36 -0.01,-0.54 l -1.41,-0.11 c -0.07,-1.49 -0.19,-2.99 -0.35,-4.48 -0.1,0.64 -0.2,1.25 -0.29,1.8 -0.51,8.28 -0.87,16.7 -1.21,24.85 l -0.21,4.91 -2.57,0.09 c -0.28,-2.51 -0.55,-5.03 -0.8,-7.56 l -1.69,0.07 c -0.12,-1.37 -0.24,-2.75 -0.38,-4.14 l -2.11,-0.02 c -0.04,-3.51 -0.22,-7.1 -0.4,-10.56 -0.11,-2.1 -0.21,-4.21 -0.29,-6.31 -0.04,-0.05 -0.08,-0.1 -0.12,-0.15 -0.06,0.75 -0.13,1.49 -0.2,2.23 l -1.78,-0.03 v 0.04 l -2.57,-0.06 c -0.09,-1.8 -0.24,-3.59 -0.4,-5.37 l -1.02,0.03 c -0.61,-6.04 -1.07,-11.65 -1.39,-16.97 h -0.08 l -1.44,0.06 c -0.17,3.82 -0.36,7.64 -0.58,11.45 l -2.57,-0.04 -0.16,-5.37 -0.56,0.01 c -0.3,-4.27 -0.55,-8.57 -0.73,-12.87 l -2.12,0.07 c -0.03,-0.26 -0.06,-0.51 -0.09,-0.77 l -0.71,-0.03 c -0.07,2.42 -0.14,4.9 -0.2,7.45 l -2.57,0.05 c -0.25,-3.84 -0.47,-7.66 -0.67,-11.47 l -1.79,0.16 c -0.06,-0.25 -0.86,-3.48 -1.35,-5.42 l -0.08,0.01 c -0.39,-1.69 -0.49,-2.14 -0.23,-2.52 -0.07,-0.82 -0.14,-1.64 -0.2,-2.46 l -2.32,0.01 c -0.02,0.24 -0.04,0.49 -0.07,0.73 l -2.57,-0.06 c -0.06,-1.34 -0.16,-2.68 -0.27,-4.01 -0.13,2.47 -0.26,4.94 -0.38,7.4 l -2.57,0.06 c -0.49,-5.35 -0.87,-10.76 -1.13,-16.16 l -0.63,0.05 c -0.02,-0.08 -0.03,-0.15 -0.05,-0.21 l -0.43,-0.02 c -0.06,0.5 -0.13,1 -0.2,1.5 l -2.56,-0.13 c -0.04,-0.9 -0.08,-1.79 -0.13,-2.69 l -0.65,-0.01 c -0.1,2.7 -0.21,5.38 -0.31,8.03 -0.21,5.4 -0.42,10.79 -0.59,16.19 -0.01,0.26 -0.02,0.52 -0.03,0.78 0,0.01 0,0.01 0,0.02 0,0 0,0 0,0.01 l -2.57,-0.08 c 0,0 0,0 0,-0.01 0,-0.01 0,-0.01 0,-0.01 0.01,-0.27 0.02,-0.54 0.03,-0.8 0.13,-4.62 -0.04,-9.28 -0.51,-13.9 l -0.94,-0.07 c -0.04,-0.67 -0.07,-1.35 -0.1,-2.03 l -0.62,0.01 c 0,-0.04 -0.01,-0.07 -0.01,-0.11 l -0.68,0.03 c -0.11,3.18 -0.21,6.35 -0.31,9.53 l -1.17,0.21 c -0.12,2.22 -0.33,4.46 -0.63,6.68 l -1.68,-0.1 c -0.13,2.27 -0.28,4.54 -0.45,6.8 l -0.68,-0.01 c -0.01,0.22 -0.02,0.43 -0.03,0.65 l -2.57,0.01 c -0.05,-0.89 -0.12,-1.79 -0.18,-2.68 l -1.23,0.06 c -0.06,-0.46 -0.12,-0.92 -0.18,-1.39 l -1.25,0.04 c -0.33,-2.42 -0.67,-3.46 -0.85,-3.87 l -0.03,0.03 -0.08,-0.24 c -0.01,-0.02 0,-0.01 0,0 l -0.03,-0.1 h -0.2 l -0.02,0.01 c 0,0 -0.01,-0.01 -0.01,-0.01 -0.05,1.8 -0.1,3.6 -0.15,5.4 l -1.84,0.02 c -0.04,0.46 -0.07,0.91 -0.11,1.37 -0.22,2.7 -0.43,5.41 -0.55,8.12 l -2.57,-0.01 c -0.02,-0.45 -0.03,-0.9 -0.05,-1.35 l -2.43,0.17 c -0.1,-0.57 -0.55,-2.01 -1.01,-3.39 -0.47,8.08 -0.82,16.95 -1.08,27.57 l -2.57,-0.01 c -0.11,-6 -0.25,-11.47 -0.41,-16.58 -0.23,3.3 -0.55,6.62 -0.94,9.94 l -2.56,-0.11 c -0.05,-1.53 -0.1,-3.06 -0.15,-4.59 -0.19,7.62 -0.37,15.23 -0.5,22.85 l -2.57,0.03 c -0.08,-2.04 -0.16,-4.07 -0.23,-6.11 h -1.19 l -0.09,-4.03 c -0.07,-3.33 -0.15,-6.71 -0.25,-10.1 l -1.42,0.11 c -0.05,-0.26 -0.09,-0.53 -0.13,-0.79 l -0.6,-0.03 c -0.3,-4.81 -0.63,-9.79 -1.06,-14.85 l -1.24,-0.05 c -0.15,1.83 -0.31,3.65 -0.49,5.46 l -2.57,-0.1 c -0.01,-0.51 -0.02,-1.03 -0.03,-1.54 -0.07,1.34 -0.14,2.67 -0.21,3.99 l -0.05,0.98 h -1.79 c -0.06,0.8 -0.2,2.02 -0.43,3.94 -0.43,3.65 -1.09,9.15 -1.35,13.66 l -2.22,-0.04 c -0.08,1.34 -0.17,2.72 -0.28,4.13 l -2.08,-0.05 c -0.02,0.45 -0.04,0.9 -0.06,1.35 l -2.56,0.14 c -0.23,-1.55 -0.4,-3.12 -0.53,-4.68 -0.34,7.67 -0.41,15.3 -0.48,22.79 l -2.57,0.02 -0.06,-3.01 c -0.08,-4.12 -0.17,-8.3 -0.27,-12.5 l -2.53,-0.03 c -0.07,-1.41 -0.13,-2.84 -0.19,-4.32 -0.24,3.62 -0.4,7.33 -0.44,11.04 l -0.88,0.06 c -0.06,0.69 -0.13,1.38 -0.19,2.08 l -2.02,-0.04 c -0.23,3.82 -0.38,7.65 -0.48,11.46 l -1.83,0.03 c -0.1,1.15 -0.2,2.31 -0.31,3.45 l -2.56,-0.03 -0.22,-2.77 c -0.18,5.4 -0.33,10.84 -0.42,16.23 l -2.57,0.06 c -0.29,-4.52 -0.51,-9.06 -0.68,-13.6 l -1.82,-0.02 c 0,-1.57 -0.02,-3.15 -0.05,-4.72 l -2.09,0.06 c -0.18,-3.18 -0.59,-6.42 -1,-9.55 -0.02,-0.19 -0.05,-0.37 -0.07,-0.56 l -1.79,-0.11 c -0.03,-2.01 -0.09,-4.02 -0.16,-6.03 l -0.55,0.01 c -0.13,-2.04 -0.3,-4.07 -0.48,-6.11 -0.05,-0.6 -0.1,-1.19 -0.15,-1.79 -0.01,0.14 -0.01,0.27 -0.01,0.41 l -1.03,0.01 c -0.14,3.21 -0.24,7.2 -0.3,9.45 -0.04,1.63 -0.08,2.89 -0.1,3.41 l -2.57,0.03 c -0.08,-1.13 -0.16,-2.26 -0.24,-3.39 h -0.82 c -0.09,-1.32 -0.15,-4.38 -0.21,-7.91 -0.06,-3.04 -0.14,-7.34 -0.26,-10.47 -0.15,1.87 -0.32,3.73 -0.54,5.58 l -2.56,-0.06 c -0.02,-0.22 -0.03,-0.44 -0.05,-0.66 l -0.32,0.01 c -0.19,4.26 -0.28,8.52 -0.27,12.75 l -1.56,0.02 c 0,18.99 0.27,29.53 0.84,36.43 l 1.08,-0.01 c 0.15,1.61 0.29,3.22 0.42,4.84 l 1.36,-0.01 c 0.03,1.03 0.06,2.07 0.1,3.1 0.06,-1.05 0.12,-2.1 0.18,-3.15 l 2.57,-0.01 c 0.37,5.16 0.65,10.59 0.83,16.41 0.09,-2.29 0.14,-4.58 0.17,-6.85 l 2.57,-0.01 c 0.09,4.94 0.19,9.65 0.3,14.19 l 2.2,0.04 c 0.02,1.78 0.05,3.58 0.07,5.38 l 2.42,-0.03 c 0.17,2.76 0.31,5.52 0.45,8.28 0.24,-3.87 0.43,-7.76 0.54,-11.63 l 2.57,-0.02 c 0.04,0.9 0.07,1.79 0.11,2.69 h 0.6 l 0.4,6.46 c 0.06,0.89 0.1,1.64 0.15,2.35 l 0.88,-0.01 c 0.16,2.99 0.29,5.98 0.4,8.98 0.08,-0.56 0.17,-1.12 0.26,-1.68 l 1.66,0.13 c 0.04,-2.01 0.07,-4.02 0.1,-6.03 l 2.57,-0.03 c 0.1,2.42 0.18,4.84 0.25,7.26 0.05,1.4 0.09,2.82 0.14,4.23 l 0.67,-0.02 c 0.28,-5.38 0.54,-11.44 0.64,-17.55 l 2.57,-0.06 c 0.06,0.87 0.11,1.75 0.16,2.63 0.13,-2.64 0.25,-5.27 0.37,-7.87 0.14,-3.21 0.29,-6.43 0.46,-9.64 l 2.15,0.04 c 0,-0.01 0,-0.02 0,-0.02 l 2.57,-0.02 0.14,2.29 c 0.13,-2.8 0.29,-5.61 0.5,-8.4 l 2.57,0.03 c 0.15,2.72 0.46,5.47 0.76,8.14 0.04,0.39 0.09,0.77 0.13,1.16 l 1.31,0.11 c 0.07,-2.54 0.13,-5.09 0.19,-7.63 0.12,-4.87 0.24,-9.74 0.39,-14.61 l 1.92,-0.02 c 0.08,-1.58 0.15,-3.16 0.22,-4.73 l 2.57,0.04 c 0.03,1.79 0.06,3.59 0.1,5.4 h 0.39 c 0.01,-0.33 0.02,-0.65 0.03,-0.98 l 0.12,-3.77 1.67,-0.6 c 0.07,-0.19 0.15,-0.37 0.23,-0.55 l 2.46,0.52 c 0,0.88 0.02,1.76 0.05,2.65 l 1.73,-0.08 c 0.18,1.61 0.42,3.21 0.69,4.81 l 1.82,0.05 c 0.05,2.46 0.13,4.94 0.23,7.42 l 2.27,-0.03 c 0.12,1.91 0.28,3.79 0.43,5.68 0.13,1.57 0.26,3.16 0.37,4.77 0.35,0.06 0.61,0.27 0.82,0.99 0.21,-5.64 0.35,-11.45 0.44,-17.46 l 2.57,-0.01 c 0.02,0.58 0.03,1.16 0.04,1.74 l 2.44,0.07 c 0.41,2.13 0.76,4.28 1.03,6.44 0.24,-3.94 0.6,-7.87 1.07,-11.76 l 0.66,0.01 c 0.01,-0.36 0.03,-0.77 0.04,-1.25 l 2.57,-0.05 c 0.1,1.48 0.18,2.96 0.25,4.44 l 1.16,0.15 c 0.05,0.24 0.09,0.49 0.12,0.73 l 0.97,0.05 c 0.13,1.21 0.22,2.43 0.28,3.66 l 1.15,0.46 c 0.11,1.82 0.21,3.63 0.29,5.43 l 0.45,-0.03 c 0.15,-7.09 0.41,-15.36 0.98,-23.7 h 1.24 c 0.04,-0.98 0.07,-1.95 0.1,-2.92 0.19,-5.47 0.35,-10.2 0.8,-15.38 l 2.57,0.1 c 0.05,5.43 0.26,10.34 0.65,14.9 h 1.49 c 0.28,-8.56 0.49,-16.86 0.63,-25.07 l 2.57,-0.03 0.29,6.89 c 0.01,0.16 0.01,0.31 0.02,0.47 l 0.53,-0.09 c 0.05,-1.29 0.1,-2.59 0.16,-3.88 l 0.48,-0.04 c 0.15,-5.14 0.34,-10.34 0.59,-15.53 l 2.57,0.02 c 0.03,0.89 0.05,1.77 0.08,2.66 l 0.99,0.01 c 0.42,6.47 0.83,13.25 1.11,20.19 0.11,-2.88 0.2,-5.75 0.25,-8.63 l 1.12,-0.01 c 0.42,-6.15 0.71,-12.32 0.99,-18.35 l 0.03,-0.63 2.57,-0.02 c 0.2,3.23 0.39,6.46 0.59,9.69 0.02,-0.29 0.03,-0.59 0.05,-0.88 l 2.57,-0.01 c 0.27,4.39 0.62,8.81 0.99,12.94 l 0.67,-0.01 c 0.02,-0.25 0.03,-0.5 0.05,-0.75 l 1.37,0.02 c 0.02,-0.24 0.05,-0.49 0.07,-0.73 l 1.77,0.07 0.01,-0.65 h 2.01 c 0.06,-1.12 0.11,-2.25 0.13,-3.4 l 2.57,-0.02 c 0.14,3.77 0.27,7.58 0.38,11.46 l 0.83,-0.01 c 0.12,-3.13 0.16,-6.25 0.14,-9.36 l 2.57,-0.12 0.1,1.17 c 0.2,2.32 0.4,4.65 0.59,7 l 2.16,-0.03 c 0.28,3.83 0.52,7.68 0.71,11.53 l 1.07,0.03 c 0.08,2.24 0.28,4.52 0.49,6.73 l 1.3,0.05 0.1,5.37 0.97,-0.01 c 0.01,0.2 0.07,0.6 0.15,1.1 0.16,-4.42 0.32,-8.83 0.49,-13.25 l 2.57,0.04 c 0.03,4.73 0.13,9.2 0.28,13.45 l 2.21,-0.01 c 0.12,1.43 0.22,2.86 0.31,4.29 1.3,0.07 1.31,0.54 1.37,6.37 0.02,1.31 0.03,2.6 0.06,3.5 0.16,0.39 0.32,0.86 0.48,1.42 l 1.19,0.15 c 0.09,0.17 0.17,0.34 0.23,0.53 l 0.14,0.01 c 0.07,-2.22 0.11,-4.46 0.07,-6.66 l 2.57,-0.12 c 0.54,6.96 0.77,14 0.89,20.97 l 1.25,-0.08 c 0.51,3.38 0.89,6.8 1.14,10.22 l 0.52,0.01 c 0.03,-1.32 0.05,-2.64 0.06,-3.95 l 2.45,-0.03 c 0.14,-2.99 0.27,-5.93 0.4,-8.82 h 0.75 c 0.13,-2.03 0.25,-4.06 0.32,-6.09 h 0.96 c 0.18,-1.77 0.38,-3.2 0.61,-4.89 0.34,-2.42 0.75,-5.43 1.29,-10.76 l 1.56,0.05 c 0.08,-1.12 0.15,-2.24 0.21,-3.37 l 2.57,-0.02 c 0.02,0.24 0.03,0.48 0.05,0.72 l 1.58,-0.06 0.09,-2.64 2.57,-0.01 c 0.15,3.54 0.5,7.11 0.84,10.56 0.07,0.71 0.14,1.42 0.21,2.13 0.12,-2.42 0.23,-4.84 0.3,-7.26 l 1.95,-0.04 c 0.66,-13.77 1.26,-25.8 2.69,-39.32 l 0.59,0.02 c 0.05,-1.77 0.09,-3.55 0.11,-5.32 l 2.57,-0.02 c 0.21,7.49 0.56,12.97 1.04,18.26 h 0.01 c 0.18,-6.32 0.37,-12.64 0.67,-18.96 l 2.57,0.02 c 0.12,3.62 0.19,7.23 0.27,10.85 0.11,5.29 0.22,10.72 0.48,16.12 l 0.68,-0.03 c 0.25,0.16 0.43,0.28 0.53,0.54 l 1.06,0.15 c 0.31,-3.32 0.47,-6.66 0.48,-9.98 l 2.57,-0.05 c 0.21,4.77 0.46,9.53 0.72,14.3 0.08,1.44 0.15,2.88 0.23,4.32 0.02,-0.34 0.03,-0.68 0.05,-1.03 l 2.57,0.02 c 0.05,1.41 0.1,2.82 0.15,4.22 1.48,0.11 1.89,0.8 1.99,23.04 l 0.01,1.87 -0.23,0.02 c -0.08,1.4 0.11,5.85 0.45,8.57 l 1.91,0.11 c 0.26,2.97 0.5,5.94 0.73,8.92 0.62,-3.26 0.82,-17.21 0.93,-24.94 l 0.04,-2.83 h 0.83 c 0.08,-2.26 0.16,-4.53 0.24,-6.79 l 2.57,-0.04 c 0.22,3.16 0.4,6.34 0.57,9.51 l 1.93,-0.02 c 0.16,2.93 0.43,5.86 0.7,8.79 0.02,0.18 0.03,0.35 0.05,0.53 l 1.15,-0.12 c 0.06,-0.5 0.12,-1 0.17,-1.51 0.44,-3.84 0.89,-7.82 1.08,-11.75 h 1 c 0.15,-1.59 0.29,-3.19 0.43,-4.79 l 2.56,0.01 c 0.09,1.07 0.16,2.14 0.23,3.22 0.02,-0.38 0.04,-0.75 0.05,-1.13 l 1.47,-0.05 c 0.18,-1.73 0.33,-3.84 0.44,-5.26 0.09,-1.13 0.16,-2.14 0.23,-2.88 l 2.57,0.07 c 0.16,4.34 0.35,8.67 0.55,13.01 0.14,3.08 0.28,6.2 0.4,9.34 h 1.19 c 0.03,0.9 0.06,1.8 0.11,2.7 l 1.95,0.01 c 0.16,-4.29 0.29,-8.58 0.37,-12.85 l 2.57,-0.02 c 0.35,9.58 0.7,19.16 1.04,28.74 0.01,0.35 0.03,0.69 0.04,1.04 0.18,-2.74 0.38,-5.47 0.63,-8.19 l 2.53,0.08 c 0.11,-4.84 0.15,-9.66 0.19,-14.41 0.03,-3.77 0.06,-7.53 0.13,-11.3 l 2.57,-0.11 c 0.1,0.98 0.19,1.96 0.28,2.95 0.16,-0.58 0.41,-1.38 0.78,-2.53 l 0.05,0.01 c 0.57,-1.89 1.2,-4.17 1.32,-5.2 l 1.28,0.04 c 0.36,-4.26 0.88,-8.91 1.58,-14.27 l 0.62,0.02 c 0.03,-0.65 0.06,-1.3 0.09,-1.95 h 2.57 c 0.08,1.57 0.18,3.14 0.28,4.7 0.11,-1.37 0.23,-2.73 0.36,-4.08 l 2.5,-0.01 c 0.11,-1.8 0.22,-3.59 0.35,-5.38 h 0.98 l 0.09,-2.65 1.93,-0.08 c 0.01,-0.23 0.02,-0.45 0.03,-0.68 0.09,-2.67 0.19,-5.34 0.19,-8.01 h 2.57 c 0,0.66 0.01,1.33 0.02,2 l 1.07,-0.01 c 0.25,-2.46 0.49,-4.97 0.63,-7.47 l 2.02,0.03 c 0.16,-2.5 0.31,-5 0.48,-7.49 l 2.43,0.06 c 0.02,-0.26 0.05,-0.51 0.07,-0.76 l 2.56,-0.03 c 0.42,3.87 0.76,7.77 1,11.68 0.3,-5.89 0.44,-11.78 0.58,-17.55 0.12,-5.15 0.25,-10.47 0.49,-15.71 l 2.57,0.08 c -0.09,5.37 -0.02,8.65 0.23,11.6 0.06,-0.01 0.11,-0.01 0.19,0 0.51,0.01 0.85,0.02 1.11,0.51 h 0.04 l 0.15,-8.09 2.56,-0.13 c 0.11,0.89 0.21,1.82 0.32,2.77 0.14,-5.61 0.32,-11.3 0.69,-16.92 l 2.57,0.03 c 0.22,5.07 0.41,9.76 0.57,14.16 l 2.28,0.03 c 0.04,0.54 0.07,1.68 0.11,3.09 0.05,1.83 0.15,5.07 0.3,7.69 l 3.51,0.08 c 0.01,0.2 0.01,0.4 0.02,0.6 -0.01,-1.51 -0.04,-2.99 -0.06,-3.97 -0.02,-1.2 -0.04,-2.17 -0.03,-2.68 h 0.98 c 0.27,-0.65 0.61,-0.74 1.01,-0.77 0.05,-1.33 0.11,-2.66 0.15,-4 l 2.57,-0.05 c 0.02,0.31 0.05,0.62 0.07,0.93 0.07,-1.21 0.14,-2.42 0.21,-3.62 l 2.57,0.06 0.12,8.67 c 0.12,8.9 0.23,18.02 0.56,27.11 l 1.1,0.01 c 0.16,1.83 0.29,3.66 0.41,5.5 0.07,-2.5 0.14,-4.99 0.22,-7.47 l 0.38,-0.46 -0.19,-0.11 c 0.34,-1.07 0.76,-8.62 1.2,-22.43 z"
   id="path16" />&#10;			<path
   class="st3"
   d="m 521.7,779.22 c 0.02,-2.41 -0.01,-4.83 -0.07,-7.25 l -2.06,-0.04 c -0.19,-1.63 -0.36,-3.25 -0.5,-4.89 l -0.94,0.22 c -0.09,1.31 -0.18,2.62 -0.27,3.93 l -1.25,-0.04 c -0.06,1.13 -0.12,2.27 -0.18,3.4 l -1.75,-0.02 c -0.01,0.44 -0.02,0.89 -0.03,1.34 h -1.18 c -0.22,3.21 -0.42,6.39 -0.6,9.53 l -1.25,0.02 c -0.06,0.9 -0.12,1.8 -0.18,2.69 l -0.82,-0.01 c -0.13,2.22 -0.2,4.52 -0.3,6.78 4.53,-0.07 9.05,-0.33 13.53,-0.82 -0.07,-4.94 -0.15,-9.87 -0.23,-14.8 z"
   id="path17" />&#10;			<path
   class="st3"
   d="m 632.45,721.96 c 0.2,-0.38 0.4,-0.76 0.6,-1.14 -0.18,-1.77 -0.38,-3.53 -0.53,-5.3 -0.04,2.08 -0.06,4.36 -0.07,6.44 z"
   id="path18" />&#10;			<path
   class="st3"
   d="m 626.95,723.39 c -1.65,-0.21 -1.99,-1.42 -2.07,-14.78 -0.01,-2.16 -0.02,-4.1 -0.07,-5.37 -0.18,-0.31 -0.34,-0.67 -0.51,-1.06 -0.21,1.56 -0.4,3.15 -0.51,4.7 l -1.77,-0.06 c -0.1,3.26 -0.23,6.52 -0.42,9.77 l 0.07,0.01 c 0.36,0.31 0.52,0.44 0.36,1.36 l 0.02,0.01 c -0.02,0.05 -0.04,0.16 -0.08,0.3 -0.11,0.57 -0.31,1.39 -0.6,2.59 -0.36,1.61 -0.73,3.46 -0.79,4.31 l -2.57,-0.04 c -0.08,-1.74 -0.15,-3.29 -0.23,-4.72 h -1.55 c -0.1,-1.78 -0.2,-3.56 -0.3,-5.35 l -1.48,0.03 c -0.1,-0.71 -0.2,-1.41 -0.3,-2.11 -0.05,2.81 -0.08,5.6 -0.11,8.37 -0.08,8.58 -0.17,17.45 -0.96,26.18 l -2.57,-0.07 c 0,-0.01 0,-0.02 0,-0.02 h -1.78 c -0.06,-3.6 -0.14,-7.19 -0.23,-10.79 -0.02,0.24 -0.03,0.47 -0.05,0.71 l -2.57,-0.01 c -0.2,-2.93 -0.39,-5.89 -0.58,-8.86 l -0.65,-0.01 c -0.05,1.36 -0.09,2.71 -0.12,4.07 l -1.4,-0.01 c -0.23,2.53 -0.48,5.06 -0.76,7.57 l -0.59,-0.02 c -0.05,2 -0.1,3.99 -0.12,5.99 l -1.07,0.02 c -0.1,4.1 -0.21,8.15 -0.36,12.2 l -2.57,0.08 c -0.07,-0.67 -0.13,-1.31 -0.21,-1.92 -0.02,0.21 -0.04,0.42 -0.06,0.63 -0.14,1.38 -0.27,2.72 -0.37,3.99 l -2.54,0.15 c -0.03,-0.12 -0.05,-0.24 -0.07,-0.37 -0.05,1.87 -0.15,3.75 -0.22,5.63 12.8,-9.62 24.04,-21.56 33.05,-35.62 -0.06,-2.49 -0.13,-4.97 -0.21,-7.46 -0.02,-0.01 -0.05,-0.02 -0.08,-0.02 z"
   id="path19" />&#10;			<path
   class="st3"
   d="m 500.5,794.74 c 0.06,0 0.11,0 0.17,0.01 -0.03,-0.41 -0.07,-0.82 -0.09,-1.23 -0.03,0.4 -0.06,0.81 -0.08,1.22 z"
   id="path20" />&#10;			<path
   class="st3"
   d="m 583.21,481.16 c 0.07,-1.57 0.13,-3.1 0.2,-4.59 l 1.66,0.02 c -4.43,-2.96 -9.08,-5.7 -13.94,-8.2 0.09,2.32 0.2,3.94 0.33,5.42 l 1.31,-0.1 c 0.04,0.28 0.08,0.55 0.12,0.83 l 0.61,0.07 c -0.03,1.78 0.03,3.6 0.13,5.41 0.11,-1.58 0.18,-3.17 0.16,-4.73 l 2.57,-0.07 c 0.17,3.75 0.38,7.5 0.61,11.24 l 0.4,-0.05 0.49,1.58 c -0.2,0.55 -0.26,1.49 -0.16,2.63 0.31,0.14 0.62,0.27 0.91,0.41 l 0.16,-10.38 1.77,-0.09 c 0.01,-0.2 0.01,-0.4 0.02,-0.61 l 2.57,-0.05 z"
   id="path21" />&#10;			<path
   class="st3"
   d="m 647.69,656.12 -2.57,-0.05 c -0.02,-0.45 -0.04,-0.9 -0.06,-1.35 l -1.01,-0.05 c -0.02,-5.19 -0.12,-9.85 -0.32,-14.16 l -0.83,-0.02 c -0.28,6.09 -0.55,8.64 -0.93,9.75 -0.29,8.69 -0.46,17.53 -0.61,26.08 -0.17,9 -0.36,18.26 -0.68,27.45 0.15,-0.39 0.31,-0.77 0.45,-1.16 0.03,-0.65 0.04,-1.31 0.07,-1.96 l 0.63,-0.02 c 0.84,-2.45 1.65,-4.93 2.38,-7.47 3.14,-10.96 3.85,-16.51 3.93,-42.5 h -0.04 c -0.13,1.83 -0.27,3.65 -0.41,5.46 z"
   id="path22" />&#10;			<path
   class="st3"
   d="m 545.96,789.43 c -0.08,-2.74 -0.22,-5.47 -0.35,-8.2 -0.01,-0.19 -0.02,-0.39 -0.03,-0.58 h -0.69 l -0.26,-6.55 c -0.21,-5.31 -0.42,-10.61 -0.61,-15.92 -0.1,0.01 -0.2,0.01 -0.31,0 -0.25,-0.02 -0.47,-0.06 -0.66,-0.17 -0.11,0.42 -0.2,0.81 -0.26,1.13 l -2.56,-0.19 -0.08,-4.09 -0.99,-0.04 c 0,0 0,-0.01 0,-0.01 0,-0.01 0,-0.01 0,-0.02 0.12,-3.45 0.05,-6.92 -0.2,-10.36 -0.38,3.38 -0.72,7.04 -1.15,11.9 l -1.4,-0.03 c -0.01,0.21 -0.01,0.42 -0.02,0.63 l -2.57,0.08 c -0.5,-5.6 -0.81,-11.25 -1.04,-16.86 h -0.01 c -0.44,3.51 -0.67,7.61 -0.66,14.04 l -2.57,0.03 c -0.08,-3.22 -0.19,-6.47 -0.31,-9.71 -0.37,2.64 -0.76,3.59 -1.15,3.97 -0.95,9.6 -1.11,19.4 -1.26,28.89 -0.09,5.37 -0.18,10.91 -0.41,16.38 6.92,-0.88 13.75,-2.23 20.44,-4.08 -0.01,-0.08 -0.02,-0.16 -0.03,-0.24 z"
   id="path23" />&#10;			<path
   class="st3"
   d="m 565.94,771.96 c -0.21,3.91 -0.39,7.62 -0.55,11.16 0.63,-0.27 1.26,-0.51 1.89,-0.79 -0.12,-3.44 -0.27,-6.91 -0.49,-10.4 z"
   id="path24" />&#10;			<path
   class="st3"
   d="m 589.9,769.19 -1.08,0.05 c -0.04,0.39 -0.09,0.77 -0.13,1.16 0.53,-0.36 1.05,-0.75 1.58,-1.12 -0.09,-0.81 -0.19,-1.61 -0.26,-2.42 -0.02,0.94 -0.06,1.78 -0.11,2.33 z"
   id="path25" />&#10;			<path
   class="st3"
   d="m 646.34,568.7 c -0.11,-0.64 -0.23,-1.28 -0.35,-1.92 0.03,1.78 0.06,3.59 0.08,5.35 0.05,-0.64 0.1,-1.28 0.15,-1.92 0.05,-0.5 0.09,-1.01 0.12,-1.51 z"
   id="path26" />&#10;			<path
   class="st3"
   d="m 550.41,718.96 c -0.35,0.01 -0.62,0.17 -0.77,0.33 0.01,0.07 0.01,0.14 0.02,0.22 l 1.66,-0.24 c -0.04,-0.01 -0.3,-0.32 -0.91,-0.31 z"
   id="path27" />&#10;			<path
   class="st3"
   d="m 494.94,791.48 c -0.01,-0.15 -0.01,-0.31 -0.02,-0.46 -0.02,-0.82 -0.04,-2.09 -0.07,-3.6 -0.06,-3.17 -0.15,-8.71 -0.32,-12.21 l -1.03,-0.06 c 0.04,-3.57 -0.07,-7.22 -0.18,-10.75 h -0.07 l -0.68,0.01 c -0.34,3.86 -0.72,7.73 -1.14,11.57 l -2.56,-0.05 c -0.37,-5.51 -1,-11.32 -1.98,-18.31 l -1.96,-0.02 c -0.04,-1.98 -0.11,-3.97 -0.2,-5.96 -0.15,1.84 -0.29,3.63 -0.44,5.36 l -2.57,-0.06 c -0.12,-3.39 -0.25,-6.77 -0.4,-10.15 l -1.66,-0.01 c 0,0.01 0,0.01 0,0.02 l -2.57,-0.01 c -0.11,-2.41 -0.2,-4.87 -0.29,-7.38 -0.11,1.14 -0.23,2.27 -0.36,3.4 l -1.22,-0.02 c -0.08,2.45 -0.14,4.91 -0.2,7.36 l -2.57,-0.02 c -0.01,-0.66 -0.02,-1.31 -0.03,-1.96 l -1.05,-0.01 c -0.2,-3.78 -0.38,-7.31 -0.53,-10.64 l -2.33,-0.23 c -0.05,-1.8 -0.13,-3.59 -0.23,-5.39 l -1.19,-0.04 c -0.03,-1.85 -0.07,-3.86 -0.12,-5.98 L 465.7,726 c -0.1,-0.47 -0.17,-0.88 -0.22,-1.22 L 465,724.67 c -0.41,4.65 -0.76,9.34 -1.04,13.99 l -1.53,0.12 c -0.1,0.31 -0.22,0.64 -0.35,0.97 l -1.36,-0.48 c -0.14,2.26 -0.27,4.53 -0.32,6.8 l -2.57,-0.03 c 0.01,-3.17 -0.09,-6.34 -0.19,-9.5 0,-0.1 -0.01,-0.19 -0.01,-0.28 -0.14,2.84 -0.29,5.67 -0.44,8.51 l -1.12,-0.02 -0.3,20.28 -2.57,0.07 c -0.04,-0.6 -0.08,-1.21 -0.12,-1.81 -0.22,4.01 -0.5,8.01 -0.88,11.99 l -2.57,-0.08 c -0.09,-2.48 -0.17,-4.95 -0.25,-7.43 l -1.53,0.04 c -0.35,-4.13 -0.72,-8.52 -1.08,-13.03 -0.14,3.17 -0.25,6.32 -0.37,9.42 -0.2,5.5 -0.45,11.12 -0.77,16.75 16.29,7.67 33.39,12.07 50.47,13.46 -0.08,-1 -0.17,-1.99 -0.23,-2.99 z"
   id="path28" />&#10;			<path
   class="st3"
   d="m 583.57,691.88 c 0,0 -0.01,0 0,0 0.03,0.43 0.06,0.87 0.1,1.3 0.03,-0.42 0.07,-0.84 0.1,-1.26 z"
   id="path29" />&#10;			<path
   class="st3"
   d="m 494.85,687.92 -0.33,-0.01 c -0.04,0.39 -0.07,0.78 -0.11,1.17 0,0 0,0 0.01,-0.01 l 0.44,-0.2 c 0,-0.3 -0.01,-0.62 -0.01,-0.95 z"
   id="path30" />&#10;			<path
   class="st3"
   d="m 427.55,557.97 c -0.09,0.01 -0.16,0.04 -0.23,0.06 0,0.02 0,0.05 0,0.07 l 0.55,-0.14 c -0.09,0 -0.19,-0.01 -0.32,0.01 z"
   id="path31" />&#10;			<path
   class="st3"
   d="m 598.6,658.55 c -0.07,0.01 -0.14,0.03 -0.22,0.05 -0.01,0 -0.02,0.01 -0.03,0.01 l 0.25,-0.01 c 0,-0.02 0,-0.03 0,-0.05 z"
   id="path32" />&#10;			<path
   class="st3"
   d="m 446.3,587.7 -0.27,0.24 c 0.19,0.12 0.5,0.23 0.88,0.15 l -0.08,-0.39 z"
   id="path33" />&#10;			<path
   class="st3"
   d="m 581.16,492.38 c 0.08,0.05 0.16,0.1 0.24,0.15 -0.05,-0.75 -0.1,-1.5 -0.15,-2.25 h -0.06 z"
   id="path34" />&#10;			<path
   class="st3"
   d="m 640.63,571.18 c 0.06,-1.97 0.13,-3.95 0.21,-5.92 h 0.89 c 0.08,-1.8 0.14,-3.6 0.18,-5.4 h 0.87 c 0.06,-1.93 0.07,-3.85 0.1,-5.77 -1.25,-4.16 -2.74,-8.32 -4.45,-12.46 l -0.45,-0.01 c 0,-0.35 -0.01,-0.74 -0.01,-1.09 -7.18,-17 -18.13,-33.46 -32.54,-47.47 -0.13,2.13 -0.26,4.28 -0.38,6.39 -0.17,3.02 -0.34,6.05 -0.53,9.07 l -1.94,-0.04 c -0.08,1.14 -0.16,2.28 -0.21,3.41 l -2.56,0.08 c -0.12,-1.07 -0.21,-1.81 -0.28,-2.32 -0.06,0.04 -0.12,0.06 -0.18,0.09 -0.07,0.73 -0.14,1.46 -0.19,2.19 l -1.24,-0.01 c -0.07,0.69 -0.13,1.37 -0.19,2.05 l -0.46,-0.03 c -0.02,0.91 -0.05,1.82 -0.07,2.73 -0.09,3.13 -0.17,6.25 -0.18,9.38 l -2.57,0.08 c -0.12,-1.88 -0.24,-3.76 -0.36,-5.65 L 594,520.41 c -0.26,5.69 -0.44,11.14 -0.54,16.49 l -2.12,0.09 c -0.01,0.2 -0.02,0.4 -0.02,0.6 l -0.8,0.04 c -0.03,1.06 -0.06,2.12 -0.1,3.18 -0.09,2.75 -0.17,5.5 -0.18,8.25 l -2.57,0.07 c -0.03,-0.42 -0.05,-0.82 -0.07,-1.22 -0.18,3.15 -0.37,6.26 -0.58,9.35 l -1.29,-0.01 c -0.14,4.96 -0.3,9.92 -0.49,14.85 l -2.57,0.04 c -0.14,-2.03 -0.27,-4.07 -0.38,-6.1 -0.09,1.14 -0.17,2.28 -0.26,3.41 l -0.94,0.01 c -0.01,0.05 -0.01,0.1 -0.01,0.15 -0.05,1.72 -0.1,3.45 -0.11,5.17 l -2.57,0.05 c -0.09,-2.05 -0.02,-3.85 0.11,-5.33 0,-0.08 0.01,-0.16 0.01,-0.25 l -0.28,-0.08 c -0.18,2.56 -0.35,5.12 -0.48,7.69 l -1.01,0.03 c -0.02,0.23 -0.04,0.47 -0.06,0.71 l -2.57,-0.1 c -0.01,-0.9 -0.03,-1.79 -0.06,-2.69 l -2.45,-0.01 c -0.06,-3.82 -0.18,-7.67 -0.35,-11.51 l -2.15,0.01 c -0.02,-0.77 -0.03,-1.42 -0.05,-1.98 l -0.67,-0.01 c -0.34,-6.24 -0.63,-12.67 -0.88,-19.23 -0.16,1.04 -0.32,2.08 -0.48,3.12 l -1.42,-0.05 c -0.15,2.21 -0.28,4.44 -0.34,6.65 l -2.57,-0.05 c 0.01,-0.88 0,-1.77 -0.02,-2.65 l -2.48,-0.03 c -0.01,-0.91 -0.03,-1.82 -0.04,-2.73 -0.21,4.03 -0.28,7.83 -0.24,11.5 l -2.57,0.07 c -0.1,-2.26 -0.22,-4.52 -0.34,-6.79 l -1.8,0.03 c -0.09,-1.58 -0.16,-3.17 -0.22,-4.76 l -0.85,0.06 c -0.19,-2.23 -0.37,-4.47 -0.53,-6.7 l -0.34,-0.06 c -0.21,5.6 -0.45,11.29 -0.84,16.9 l -1.49,-0.02 c -0.25,2.03 -0.49,4.08 -0.65,6.12 l -2.57,-0.07 c -0.04,-1.55 -0.08,-3.1 -0.13,-4.65 l -0.93,0.02 c -0.07,-0.6 -0.07,-1.33 -0.04,-2.08 l -0.68,-0.07 c -0.12,-5.73 -0.33,-11.48 -0.62,-17.14 -0.15,-0.3 -0.28,-0.78 -0.42,-1.55 -0.24,0.13 -0.5,0.18 -0.83,0.15 -1.41,-0.14 -1.92,-0.71 -2.02,-11.81 l -1.47,-0.11 c -0.05,-2.07 -0.11,-4.13 -0.18,-6.2 -0.54,-0.06 -0.89,-0.3 -1.13,-1.71 -0.03,1.27 -0.04,2.54 -0.03,3.81 l -0.88,0.58 c -0.07,2.3 -0.13,4.6 -0.19,6.9 l -2.57,0.04 c -0.12,-2.04 -0.25,-4.08 -0.38,-6.11 l -0.69,0.03 c -0.08,-1.15 -0.16,-2.3 -0.23,-3.45 l -0.84,-0.01 c -0.04,-5.55 -0.19,-11.15 -0.45,-16.68 -0.19,0.24 -0.48,0.4 -0.91,0.42 -0.36,0.03 -0.59,-0.06 -0.79,-0.2 -0.17,0.28 -0.4,0.43 -0.64,0.49 -0.11,0.36 -0.24,0.81 -0.39,1.4 l -1.43,-0.16 c -0.57,4.71 -0.88,10.63 -1.19,16.38 -0.34,6.37 -0.66,12.39 -1.29,15.52 l -1.86,-0.06 c -0.15,1.96 -0.34,3.45 -0.63,5.73 -0.19,1.47 -0.41,3.26 -0.7,5.73 l -2.57,-0.14 c -0.03,-3.21 -0.2,-6.48 -0.37,-9.64 -0.01,-0.12 -0.01,-0.23 -0.02,-0.35 -0.18,0.84 -0.38,1.92 -0.62,3.42 l -2.2,0.01 c -0.11,2.2 -0.22,4.39 -0.28,6.59 l -2.11,0.1 c -0.01,0.2 -0.02,0.41 -0.03,0.61 l -0.9,-0.04 c -0.06,0.32 -0.13,0.64 -0.2,0.95 l -0.7,-0.07 c -0.13,3.8 -0.24,7.58 -0.33,11.31 l -0.71,0.02 c 0,0.02 0,0.04 -0.01,0.06 l -0.95,-0.03 -0.9,0.03 c 0,-0.02 0,-0.04 -0.01,-0.06 l -0.38,-0.01 c -0.28,2.97 -0.58,6.09 -0.61,6.78 l -2.57,0.02 c -0.13,-2 -0.22,-4.01 -0.29,-6 l -0.78,-0.15 c -0.01,-0.43 -0.02,-0.87 -0.03,-1.31 l -0.69,0.02 c -0.18,-2.69 -0.36,-5.41 -0.56,-8.07 -0.03,0.43 -0.06,0.86 -0.08,1.29 l -2.56,0.12 c -0.42,-2.74 -0.73,-5.49 -0.97,-8.26 l -0.24,0.02 c -0.05,0.49 -0.11,0.97 -0.18,1.45 l -2.35,-0.02 c -0.06,1.31 -0.1,2.61 -0.13,3.92 l -2.57,-0.01 c -0.11,-7.86 -0.47,-15.07 -1.09,-21.79 -0.09,0.98 -0.18,1.95 -0.27,2.93 l -2.57,-0.1 c -0.01,-0.63 -0.02,-1.27 -0.03,-1.91 -0.14,2.16 -0.22,4.8 -0.25,8.68 l -2.57,0.02 c -0.02,-0.68 -0.04,-1.36 -0.06,-2.03 l -1.01,0.01 c -0.13,-5.27 -0.25,-10.53 -0.36,-15.8 -0.09,1.01 -0.19,2.02 -0.29,3.02 l -2.57,-0.12 c 0,-0.67 -0.01,-1.33 -0.01,-2 l -2.13,-0.01 c -0.16,-7.77 -0.32,-15.73 -0.67,-23.65 h -0.75 c 0,0 0,-0.01 0,-0.01 l -1.43,-0.02 c -0.03,-1.08 -0.07,-2.17 -0.1,-3.25 l -0.6,0.03 c -0.43,-2.8 -0.81,-5.62 -1.14,-8.45 -0.44,3.36 -1.09,6.86 -2.07,10 l -2.25,-0.29 c -0.07,3.14 -0.13,6.27 -0.19,9.41 l -2.57,0.04 -0.22,-4.72 c -0.13,-2.72 -0.25,-5.43 -0.37,-8.15 l -1.19,-0.01 -0.14,-3.89 -0.92,-0.16 c -0.03,-0.5 -0.05,-1.45 -0.09,-2.63 -0.01,-0.38 -0.03,-0.82 -0.04,-1.32 -0.06,1.31 -0.11,2.62 -0.15,3.92 l -2.45,0.08 c -0.02,0.64 -0.04,1.29 -0.05,1.93 l -1.35,0.01 c -0.24,2.53 -0.51,5.05 -0.79,7.56 h -1.95 c -0.06,1.55 -0.12,3.1 -0.18,4.65 l -2.57,-0.04 c -0.03,-1.83 -0.08,-3.66 -0.14,-5.5 -0.03,0 -0.07,0.01 -0.1,0.01 -0.24,4.56 -0.5,9.12 -0.76,13.67 l -2.57,-0.03 c -0.06,-1.79 -0.12,-3.57 -0.18,-5.36 l -0.33,-0.01 c -0.6,6.92 -0.9,14 -1.19,21.62 l -2.1,0.02 c -0.13,0.95 -0.27,1.9 -0.41,2.84 l -2.56,-0.19 c -0.04,-6.21 -0.08,-12.53 -0.28,-18.92 h -0.11 c -0.27,4.06 -0.47,8.13 -0.6,12.18 l -1.04,0.03 c -0.01,0.24 -0.02,0.48 -0.02,0.72 0.04,0.2 0.03,0.4 0.01,0.57 h 0.01 c -0.02,0.1 -2.18,10.41 -2.54,12.42 l -1.13,-0.07 c -0.1,1.33 -0.2,2.66 -0.28,3.99 l -2.57,-0.06 c -0.03,-1.55 -0.08,-3.1 -0.15,-4.65 l -2.34,-0.08 c 0,-0.03 0,-0.07 0,-0.1 -0.19,3.7 -0.5,7.4 -1,11.07 l -2.55,0.01 c -0.08,-0.58 -0.16,-1.07 -0.24,-1.49 l -0.21,0.08 c -0.27,-0.34 -0.48,-0.74 -0.64,-1.17 -0.09,1.07 -0.19,2.13 -0.29,3.19 l -1.78,0.04 c 0.01,0.19 0.01,0.39 0.01,0.58 0.18,9.6 0.07,12.11 -1.49,12.67 -0.09,3 -0.19,5.99 -0.3,8.99 l -2.57,0.04 c -0.3,-4.19 -0.5,-8.39 -0.69,-12.59 -0.18,-3.88 -0.36,-7.84 -0.64,-11.8 l -1.16,-0.01 c -0.1,-1.74 -0.24,-3.5 -0.4,-5.24 -0.06,1.3 -0.13,2.59 -0.21,3.88 -0.17,3.09 -0.34,6.28 -0.39,9.43 l -2.57,0.06 -0.42,-7.45 -1.01,0.02 -0.1,-1.42 h -0.26 c -0.1,1.78 -0.2,3.54 -0.29,5.3 -0.24,4.34 -0.48,8.68 -0.71,13.02 l -2.57,-0.02 -0.3,-7.6 c -0.04,-1.02 -0.08,-2.04 -0.12,-3.07 -0.03,3 0.04,6.75 0.08,9.27 0.04,2.29 0.07,4.28 0.06,5.43 l -2.37,0.08 c -0.11,5.36 -0.24,10.82 -0.48,16.21 l -2.57,-0.03 -0.02,-1.1 c -0.13,-6.04 -0.27,-12.2 -0.54,-18.37 -0.05,1.29 -0.08,2.58 -0.08,3.86 l -2.38,0.03 c -0.04,0.91 -0.08,1.82 -0.12,2.74 L 402.57,570 c 0.01,-0.95 0.01,-1.84 0,-2.68 l -2.5,0.07 c -0.07,-0.96 -0.15,-1.91 -0.23,-2.86 -0.02,0.7 -0.04,1.41 -0.05,2.11 l -2.57,0.06 c -0.04,-0.64 -0.08,-1.27 -0.12,-1.91 -0.2,3.7 -0.38,7.33 -0.57,11.06 -0.38,7.52 -0.77,15.47 -1.38,25.38 l -2.43,-0.07 c -0.02,0.47 -0.04,0.94 -0.07,1.41 l -2.57,-0.04 c -0.07,-3.11 -0.21,-6.23 -0.36,-9.34 -0.08,-1.75 -0.17,-3.49 -0.23,-5.24 -0.09,-0.02 -0.19,-0.04 -0.29,-0.07 -1.13,-0.32 -0.98,-1.39 -0.84,-2.26 h -0.06 c -0.01,-0.45 -0.03,-0.91 -0.04,-1.36 h -0.67 c -0.08,-2.82 -0.32,-5.72 -0.56,-8.51 -0.01,-0.11 -0.02,-0.23 -0.03,-0.34 -0.21,0.12 -0.43,0.16 -0.68,0.16 -0.08,0.38 -0.16,0.78 -0.25,1.22 -0.67,3.28 -1.51,7.36 -1.63,8.28 l -2.56,-0.12 c -0.12,-2.88 -0.21,-5.76 -0.3,-8.65 -0.13,1.54 -0.25,3.08 -0.34,4.62 l -0.51,-0.02 c -0.06,1.36 -0.12,2.71 -0.2,4.07 l -2.57,-0.06 c -0.04,-2.9 -0.1,-5.8 -0.19,-8.68 l -1.55,0.18 c -1.97,-7.88 -2.91,-15.48 -2.87,-22.62 -3.44,11.09 -5.31,21.73 -5.4,30.53 -0.15,13.51 -0.25,25.06 -0.32,35.02 l 0.79,-0.01 c 0.09,-1.57 0.18,-3.14 0.26,-4.71 h 2.07 c 0.23,-4.78 0.33,-9.52 0.43,-14.18 l 2.57,-0.07 c 0.41,5.33 0.65,10.73 0.71,16.09 0.68,0.35 0.9,1.81 1.07,8.26 0.14,-0.21 0.32,-0.3 0.53,-0.34 0.16,-4.38 0.32,-8.75 0.48,-13.13 l 2.57,0.02 c 0.06,3.08 0.23,6.15 0.4,9.21 0.07,1.2 0.13,2.4 0.19,3.6 l 0.83,0.01 c 0.09,1.6 0.2,3.19 0.32,4.79 l 1.1,0.03 c -0.02,3.04 0.08,6.15 0.18,9.15 0,0.04 0,0.09 0.01,0.13 l 0.86,0.05 c 0.09,-1.79 0.19,-3.58 0.3,-5.36 h 2.08 c 0.12,-3.16 0.25,-6.29 0.41,-9.46 l 2.57,0.05 0.05,3.5 c 0.02,1.74 0.05,3.49 0.07,5.24 0.06,-2.01 0.12,-4.03 0.17,-6.04 l 2.57,0.03 c 0.02,4.9 0.16,9.35 0.37,13.53 l 1.76,-0.03 c 0.18,-2.52 0.4,-5.03 0.64,-7.53 l 2.52,0.04 c 0.49,-7.99 1.35,-15.56 2.12,-21.74 l 2.56,0.14 c 0.02,1.59 0.05,3.13 0.07,4.62 l 2.3,0.06 c 0.22,-2.29 0.48,-4.58 0.78,-6.87 l 2.56,0.14 0.03,1.4 c 0.05,2.48 0.09,4.99 0.15,7.49 0.03,-0.94 0.07,-1.87 0.1,-2.81 l 1.27,0.01 c -0.02,-0.69 -0.04,-1.37 -0.06,-2.03 l 0.68,-0.07 c 0.07,-1.52 0.15,-3.04 0.23,-4.56 0.17,-3.14 0.35,-6.38 0.38,-9.56 l 2.57,-0.03 c 0.06,1.77 0.12,3.57 0.18,5.41 0.03,-0.44 0.05,-0.88 0.07,-1.31 0.16,-2.89 0.33,-5.88 0.38,-8.81 l 1.93,-0.03 c 0.18,-3.18 0.37,-6.36 0.58,-9.52 l 0.64,-0.11 c 0.03,-0.22 0.05,-0.43 0.08,-0.65 l 2.56,0.12 c 0.05,1.13 0.09,2.25 0.13,3.39 l 2.01,0.04 c 0.02,1.09 0.05,2.19 0.1,3.28 l 1.67,-0.03 c 0.43,3.66 0.79,7.32 1.09,10.95 l 2.48,-0.06 c 0.22,3.14 0.38,6.29 0.52,9.44 0.18,-7.19 0.35,-14.38 0.48,-21.56 l 2.57,-0.03 c 0.06,1.43 0.05,3.76 0.04,6.34 -0.01,3.87 -0.03,9.95 0.29,12.41 l 0.25,0.04 c 0.25,-3.81 0.39,-7.58 0.41,-11.3 l 1.35,-0.09 0.07,-2.58 2.42,-0.09 c 0.14,-2.08 0.29,-4.12 0.44,-6.13 l 2.53,-0.2 c 0.62,2.55 0.99,4.98 1.26,7.25 0.03,-0.66 0.06,-1.33 0.1,-1.99 0.17,-3.4 0.34,-6.93 0.38,-10.38 l 2.57,-0.07 c 0.11,1.56 0.21,3.13 0.31,4.71 l 0.33,-0.02 c 0,-0.35 0.01,-0.75 0,-1.21 l 0.57,-0.02 c 0.02,-0.52 0.03,-1.03 0.05,-1.55 l -0.24,0.09 -0.62,-1.74 c 0.4,-0.93 1.74,-4.24 2.04,-7.74 l 2.57,0.07 c 0.05,1.8 0.1,3.6 0.15,5.4 0.28,0.22 0.52,0.62 0.52,1.36 -0.01,1.14 0,2.02 0.03,2.69 l 0.94,-0.04 c 0.03,-0.88 0.05,-1.76 0.07,-2.64 l 2.57,-0.03 c 0,0.01 0,0.02 0,0.03 0.14,-3.1 0.26,-6.19 0.38,-9.24 l 0.25,-6.35 2.57,-0.01 c 0.1,1.85 0.18,3.7 0.26,5.56 0.12,-3.65 0.25,-7.3 0.38,-10.96 h 0.93 c 0.25,-3.24 0.66,-6.47 1.23,-9.66 l 2.55,0.21 c 0.04,4.03 0.14,8.1 0.29,12.17 l 0.78,0.01 c 0.02,0.91 0.04,1.83 0.06,2.74 0.23,-6.07 0.44,-12.23 0.58,-18.32 l 2.57,0.03 c 0,0.2 0,0.4 0,0.61 l 1.71,0.05 c 0.08,-2.09 0.14,-4.18 0.2,-6.24 l 0.15,-4.6 2.57,-0.02 c 0.31,6.68 0.49,13.29 0.6,19.65 l 1.19,0.01 c 0.05,1.78 0.1,3.57 0.18,5.36 l 2.32,0.02 c 0.02,0.44 0.04,0.87 0.06,1.31 l 1.01,0.05 c 0.02,0.43 0.04,0.87 0.07,1.31 l 1.5,-0.01 c 0.15,-2.71 0.32,-5.41 0.51,-8.1 l 2.57,-0.01 c 0.26,3.41 0.48,6.83 0.7,10.25 0.21,3.29 0.42,6.65 0.68,10 0.14,-1.77 0.26,-3.55 0.33,-5.31 l 2.4,-0.01 c 0.03,-0.68 0.07,-1.36 0.1,-2.04 l 2.56,-0.09 c 0.36,2.98 0.66,5.98 0.88,9 0.05,-0.93 0.1,-1.87 0.13,-2.79 l 2.57,-0.06 c 0.03,0.3 0.35,2.56 0.63,4.55 0.15,1.07 0.26,1.88 0.33,2.5 0.05,0.3 0.07,0.47 0.08,0.53 l -0.04,0.01 c 0.05,0.72 -0.01,1.07 -0.22,1.26 0.04,1.31 0.08,2.62 0.12,3.93 0.03,-0.85 0.06,-1.7 0.08,-2.55 l 2.57,0.02 c 0.01,0.23 0.01,0.45 0.01,0.66 h 2.13 c 0.04,1.34 0.07,2.69 0.11,4.03 l 0.96,0.02 c 0.19,5.33 0.53,10.92 1.03,16.91 l 1.1,-0.01 c 0.05,0.89 0.11,1.77 0.18,2.66 l 0.87,0.01 c 0.1,-2.06 0.18,-4.13 0.23,-6.19 0,-2.62 0.07,-4.53 0.07,-4.59 l 2.57,0.06 c -0.01,1.8 -0.04,3.61 -0.09,5.42 0.04,6.25 0.6,11.63 1.22,12.53 -0.08,-0.11 -0.34,-0.34 -0.77,-0.27 l 1.44,1.24 c 0.06,1.81 0.15,3.62 0.24,5.43 l 0.83,0.01 c 0,0.23 0.01,0.46 0.01,0.68 l 2.48,-0.08 c 0.12,1.61 0.24,3.23 0.37,4.86 0.14,-2.9 0.29,-5.81 0.45,-8.71 -0.07,-0.21 -0.09,-0.52 -0.06,-0.99 l -0.09,-0.02 0.34,-2.02 c 0.12,-0.81 0.29,-1.82 0.49,-3.07 0.44,-2.71 0.9,-5.53 0.93,-5.71 l 2.56,0.1 c 0.08,1.28 0.15,2.57 0.22,3.85 l 0.49,0.06 c -0.54,-4.39 -0.63,-5.77 0.78,-6.17 0.24,-0.07 0.46,-0.07 0.67,-0.03 0.08,-3.06 0.17,-6.12 0.27,-9.18 l 2.56,-0.08 c 0.16,-1.57 0.27,-3.13 0.3,-4.65 l 2.57,0.01 0.13,7.38 0.51,-0.01 c 0,-0.01 0,-0.02 0,-0.03 l 0.36,0.03 h 0.34 c 0.11,-1.15 0.23,-2.29 0.37,-3.44 l 0.57,0.03 c 0.04,-0.25 0.08,-0.53 0.13,-0.83 0.24,-1.47 0.69,-4.19 0.72,-4.55 l 1.53,0.02 c 0.3,-7.65 0.73,-10.62 1.35,-11.84 0.45,-6.12 0.69,-12.36 0.69,-18.54 l 0.75,-0.05 c -0.01,-0.16 -0.01,-0.32 -0.02,-0.48 -0.15,0.11 -0.26,0.24 -0.31,0.36 0.09,-0.21 0.25,-1.03 0.3,-1.36 l 1.43,0.08 c 0.27,-1.8 0.54,-3.63 0.71,-5.44 l 2.11,-0.02 c 0.01,-0.2 0.02,-0.4 0.03,-0.6 l 2.57,-0.06 c 0.88,9.06 1.44,17.92 1.68,26.41 l 0.71,0.02 c 0.01,-0.65 0.03,-1.3 0.03,-1.95 l 0.91,-0.02 c 0.12,-2.74 0.29,-5.48 0.52,-8.2 l 2.57,0.05 c 0.03,0.69 0.06,1.37 0.1,2.06 l 0.97,0.01 c 0.01,1.57 0.03,3.15 0.07,4.73 l 1.71,-0.07 c 0.06,0.93 0.12,1.85 0.17,2.78 l 0.9,-0.02 c 0.02,0.79 0.03,1.46 0.05,2.02 l 0.67,0.02 c 0.03,1.79 0.08,3.58 0.13,5.37 l 0.59,-0.01 c 0.21,4.05 0.38,8.13 0.5,12.2 h 0.57 c 0.09,2.01 0.19,4.03 0.3,6.04 l 0.77,-0.01 c 0.21,2.27 0.54,4.57 0.85,6.8 l 0.5,-0.01 c 0,-0.01 0,-0.01 0,-0.02 l 0.71,0.01 h 0.31 c 0.25,-6.74 0.61,-12.62 1.11,-18.28 l 2.57,0.06 c 0.13,3.23 0.38,6.71 0.7,10.1 l 0.95,0.02 c 0.02,-0.66 0.03,-1.32 0.05,-1.98 l 2.57,-0.08 c 0.08,0.91 0.16,1.83 0.23,2.76 l 1.92,-0.02 c 0.11,2.2 0.22,4.49 0.33,6.82 h 1.1 c 0.01,0.43 0.01,0.87 0.02,1.3 l 0.85,-0.01 c 0.13,-5.88 0.37,-11.79 0.84,-17.64 l 2.55,-0.14 c 0.1,0.5 0.17,1.01 0.24,1.51 l 0.04,-0.01 c 0.01,-0.21 0.01,-0.42 0.02,-0.63 h 2.57 c 0.11,4.12 0.24,7.93 0.38,11.52 l 1.05,-0.01 c 0.1,3.82 0.19,7.63 0.29,11.45 0.18,-0.69 0.55,-1.34 1.5,-1.17 l 1.06,1.2 c 0.01,0.22 0.03,0.44 0.04,0.66 l 2.47,0.04 c 0.15,3.92 0.33,7.84 0.51,11.76 0.01,0.15 0.01,0.29 0.02,0.44 l 1.82,-0.02 c 0.16,-2.95 0.3,-5.89 0.43,-8.8 h 1.91 c 0.03,-0.41 0.05,-0.83 0.08,-1.24 0.18,-2.98 0.36,-5.95 0.52,-8.93 l 2.57,0.02 c 0.03,0.67 0.05,1.34 0.08,2.01 l 1.1,-0.04 c 0.43,-6.21 0.72,-12.66 0.89,-19.55 h 1.18 c 0.31,-1.65 0.64,-3.32 1,-4.97 l 0.57,0.05 0.12,-3.88 2.57,-0.01 c 0.01,0.22 0.02,0.44 0.02,0.66 l 0.69,-0.01 c 0.09,1.59 0.18,3.18 0.26,4.76 0.12,-0.95 0.24,-1.83 0.35,-2.68 0.89,-6.67 1.48,-11.07 2.16,-23.07 l 2.57,0.05 c 0.04,1.79 0.12,3.58 0.21,5.36 l 0.78,0.01 c 0,-0.2 0,-0.4 0,-0.6 l 0.88,-0.01 c 0.09,-4.38 0.15,-8.7 0.19,-12.87 l 2.57,-0.07 c 0.07,1.11 0.15,2.22 0.23,3.34 l 0.85,0.02 c 0.02,0.22 0.04,0.44 0.06,0.65 l 0.88,-0.04 c 0.18,-2.72 0.44,-5.42 0.78,-8.11 l 2.23,0.06 c 0.19,-1.4 0.4,-2.79 0.63,-4.17 l 2.55,0.11 c 0.03,0.23 0.43,3.37 0.69,5.35 h 0.02 c 0.07,0.55 0.12,0.98 0.16,1.31 0.02,0.16 0.04,0.26 0.04,0.3 h -0.02 c 0.04,0.54 0,0.77 -0.16,0.96 -0.01,0.51 -0.01,1.05 -0.02,1.61 -0.01,0.39 -0.01,0.82 -0.02,1.27 l 0.47,0.02 c 0.17,-4.95 0.33,-9.89 0.54,-14.84 l 2.39,0.03 c 0.05,-0.69 0.08,-1.37 0.11,-2.06 h 2.46 c 0.02,-0.24 0.03,-0.47 0.05,-0.71 l 2.03,0.06 c 0.13,-2.5 0.27,-5 0.42,-7.49 -0.04,-5.05 0.28,-9.75 0.77,-12.36 l 2.55,0.32 -0.19,2.96 c -0.19,3.08 -0.39,6.18 -0.57,9.31 0.07,6.9 0.82,14.27 2.56,17.21 0.26,-2.42 0.49,-4.86 0.62,-7.28 l 2.57,0.01 c 0.26,5.57 0.47,11.17 0.61,16.69 0.11,0.01 0.22,0.04 0.35,0.07 0.03,0.01 0.05,0.01 0.08,0.02 0.21,-3.37 0.53,-3.82 1.26,-3.9 0.24,-6.58 0.5,-13.1 0.84,-19.66 l 2.56,-0.09 c 0.26,2.06 0.48,4.13 0.67,6.2 l 2.55,-0.02 c 0.25,4.1 0.46,8.37 0.64,12.88 l 1.51,0.01 c 0.31,7.43 0.55,14.96 0.77,22.34 0.09,-0.36 0.18,-0.7 0.28,-1.01 0.04,-0.57 -0.06,-2.46 -0.13,-3.98 -0.13,-2.85 -0.17,-3.73 0.94,-3.94 z"
   id="path35" />&#10;			<path
   class="st3"
   d="m 637.73,692.78 c -0.15,-10.49 -0.3,-21.26 -0.91,-31.95 h -1.33 c -0.33,-6.29 -0.54,-12.64 -0.68,-18.95 l -1.82,-0.01 c -0.19,-3.85 -0.41,-7.72 -0.65,-11.59 -0.07,3.43 -0.07,7.94 0.01,12.16 v 0.02 0 l -2.12,0.04 c -0.02,1.12 -0.04,2.24 -0.03,3.36 l -2.57,0.04 c -0.01,-0.44 -0.02,-0.88 -0.04,-1.33 l -1.75,-0.03 c -0.06,-2.68 -0.22,-5.35 -0.37,-8.02 -0.02,-0.36 -0.04,-0.72 -0.06,-1.08 -0.03,0 -0.05,0 -0.08,0 -0.64,-0.03 -1.06,-0.12 -1.37,-1.15 -0.07,0.95 -0.13,1.89 -0.18,2.84 l -2.1,-0.03 c 0,0.04 0,0.09 0,0.13 0.1,0.59 -0.01,1.17 -0.06,1.44 l -2.55,-0.27 c 0.01,-0.22 0.01,-0.44 0.02,-0.67 l -0.28,-0.16 -0.02,0.89 -1.23,0.02 c -0.09,2.02 -0.17,4.05 -0.2,6.06 l -2.57,0.04 c -0.03,-0.53 -0.06,-1.73 -0.09,-3.26 -0.05,-1.95 -0.13,-5.31 -0.24,-8.16 l -0.16,0.01 c -0.2,8.24 -0.46,16.69 -1.23,25.01 l -1.36,-0.02 c -0.03,0.44 -0.05,0.87 -0.07,1.31 l -2.57,-0.04 c -0.02,-1.33 -0.05,-2.66 -0.09,-3.99 l -0.62,-0.03 c -0.09,0.72 -0.18,1.44 -0.29,2.16 l -1.56,-0.1 c -0.07,1.35 -0.14,2.69 -0.21,4.04 l -2.57,0.01 c -0.03,-0.44 -0.05,-0.88 -0.08,-1.32 L 603,660.18 c -0.11,1.79 -0.21,3.58 -0.27,5.37 l -2.57,0.06 c -0.06,-0.68 -0.11,-1.36 -0.16,-2.05 l -0.82,0.08 c -0.01,0.29 -0.02,0.59 -0.02,0.88 0.01,0.33 0.01,0.66 0,0.99 h -0.58 l -0.13,4.04 -1.22,0.07 c -0.29,5.41 -0.47,10.83 -0.57,16.22 l -2.57,0.09 c -0.19,-2.28 -0.39,-4.56 -0.6,-6.84 -0.01,0.25 -0.03,0.51 -0.05,0.76 l -0.52,-0.04 c -0.06,1.35 -0.12,2.71 -0.19,4.06 l -2.57,-0.02 c -0.07,-2.07 -0.19,-4.14 -0.32,-6.21 -0.56,5.3 -0.88,9.91 -1.02,14.33 l -2.5,0.08 c -0.67,8.37 -1.09,16.59 -1.43,24.31 h -2.18 c -0.13,4.53 -0.34,9.07 -0.67,13.57 l -2.57,0.02 c -0.08,-0.84 -0.15,-1.69 -0.21,-2.54 -0.18,3.3 -0.33,6.59 -0.48,9.83 -0.2,4.33 -0.4,8.65 -0.66,12.97 l -2.57,-0.03 c -0.31,-8.31 -0.61,-16.63 -0.91,-24.94 -0.1,1.96 -0.2,3.92 -0.3,5.86 l -0.15,2.85 -2.57,0.01 c -0.29,-5.16 -0.5,-10.29 -0.67,-15.57 l -1.47,-0.01 c -0.03,-0.46 -0.05,-0.93 -0.08,-1.39 l -1.7,-0.01 c -0.14,-8.28 -0.51,-16.71 -0.88,-24.85 -0.01,-0.1 -0.01,-0.21 -0.02,-0.31 -0.11,0.05 -0.23,0.08 -0.37,0.1 -0.09,1.2 -0.18,2.39 -0.28,3.59 -0.21,2.66 -0.42,5.32 -0.53,7.98 l -1.04,0.06 c -0.01,0.21 -0.02,0.41 -0.03,0.62 l -2.57,-0.07 c 0.01,-2.43 -0.02,-4.88 -0.09,-7.33 h -0.01 c -0.17,1.72 -0.37,3.42 -0.56,5.1 -0.24,2.14 -0.49,4.28 -0.69,6.43 l -2.04,0.32 c -0.15,1.26 -0.31,2.52 -0.47,3.78 l -1.96,-0.08 c -0.07,2.67 -0.12,5.36 -0.17,8.06 l -2.57,0.04 c -0.22,-4.19 -0.41,-8.38 -0.59,-12.57 -0.3,10.75 -0.72,12.94 -1.53,13.48 -0.08,2.01 -0.19,4.01 -0.31,6.02 -0.14,2.42 -0.28,4.84 -0.35,7.26 l -2.57,0.04 c -0.4,-6.75 -0.88,-13.62 -1.45,-20.46 -0.09,0 -0.17,0 -0.26,-0.01 -0.12,-0.02 -2.87,-0.49 -2.44,-12.75 0.01,-0.29 0.03,-0.79 0.22,-1.21 v -0.68 c -0.03,-6.84 -0.11,-12.05 -0.24,-15.6 -0.02,0.22 -0.03,0.43 -0.05,0.65 l -2.56,0.04 c -0.05,-0.44 -0.09,-0.88 -0.13,-1.32 l -1.31,-0.11 c -0.14,-3.23 -0.3,-6.46 -0.47,-9.69 -0.06,0.35 -0.12,0.7 -0.18,1.05 l -2.55,-0.13 c -0.13,-1.64 -0.25,-3.28 -0.38,-4.92 -0.07,-0.01 -0.13,-0.02 -0.2,-0.03 -0.03,0.13 -0.07,0.27 -0.1,0.41 l -2.54,-0.21 c -0.02,-0.24 -0.03,-0.48 -0.05,-0.71 l -2.09,0.02 c -0.04,-0.67 -0.08,-1.33 -0.11,-2 l -0.95,0.04 -0.03,-0.26 c -0.49,-4.56 -0.92,-8.51 -1.27,-12.74 -0.79,9.77 -1.24,19.2 -1.74,29.69 -0.25,5.21 -0.51,10.63 -0.83,16.41 l -1.77,-0.02 c -0.01,0.21 -0.01,0.43 -0.01,0.64 l -2.57,0.09 c -0.18,-2.28 -0.34,-4.55 -0.5,-6.83 l -1.27,0.14 c -0.04,-0.25 -0.06,-0.5 -0.06,-0.74 -0.15,-1.73 -0.31,-3.46 -0.48,-5.18 l -0.4,-0.06 c -0.13,3.53 -0.27,7.05 -0.41,10.58 l -2.57,0.09 c -0.13,-1.15 -0.26,-2.31 -0.38,-3.47 l -2.2,-0.03 c -0.38,2.89 -0.66,5.72 -0.93,12.22 h -0.88 c -0.08,1.35 -0.15,2.7 -0.19,4.05 l -0.69,0.01 c -0.31,6.67 -0.66,13.55 -1.09,20.34 l -2.56,0.07 c -0.11,-0.94 -0.22,-1.88 -0.31,-2.82 l -1.33,0.03 c -0.03,0.24 -0.05,0.49 -0.08,0.73 l -2.57,-0.16 c 0.06,-2.41 0.06,-4.82 -0.01,-7.23 l -2.48,-0.17 -0.05,-4.87 c -0.03,-3.28 -0.07,-6.6 -0.12,-9.93 l -2.33,-0.12 c 0.03,-2.87 -0.08,-5.8 -0.18,-8.63 -0.02,-0.43 -0.03,-0.86 -0.05,-1.29 l -0.82,0.03 c -0.14,-0.67 -0.11,-1.46 -0.08,-2.22 0.01,-0.2 0.02,-0.41 0.02,-0.63 l -1.01,0.14 c -0.26,-1.3 -0.52,-2.23 -0.73,-2.87 l -0.09,0.04 c -0.36,-0.46 -0.73,-1.04 -0.9,-1.61 0,0.07 -0.01,0.14 -0.01,0.21 l -2.57,0.02 c -0.05,-0.68 -0.1,-1.36 -0.15,-2.05 l -0.13,4.69 -2.57,0.02 c -0.05,-1.36 -0.11,-2.72 -0.18,-4.08 l -1.96,-0.01 -0.22,-12.13 -0.86,-0.02 c -0.09,-2.03 -0.27,-4.05 -0.45,-6.06 l -0.47,-0.01 c -0.02,0.89 -0.05,1.77 -0.07,2.66 l -2.57,0.02 c -0.14,-3.81 -0.36,-7.63 -0.62,-11.46 l -1.68,-0.02 c -0.15,1.82 -0.32,3.64 -0.49,5.46 l -2.57,-0.1 c -0.05,-2.96 -0.11,-5.85 -0.17,-8.7 l -0.34,-0.01 -0.09,5.32 c 0.03,0.7 0.02,1.41 -0.04,2.11 l -0.5,-0.03 c -0.06,1.58 -0.13,3.16 -0.22,4.73 L 472.78,671 c -0.2,-4.65 -0.37,-9.57 -0.5,-14.86 l -0.34,-0.01 c -0.07,2.46 -0.13,4.92 -0.16,7.38 l -2.56,0.16 c -0.54,-3.83 -1.24,-9.9 -1.86,-16.76 l -0.27,0.09 c 0.02,0.28 0.04,0.56 0.05,0.84 l -2.55,0.3 c -0.05,-0.26 -0.1,-0.55 -0.13,-0.85 -0.16,2.06 -0.33,4.11 -0.53,6.16 l -0.64,-0.02 c -0.19,4.54 -0.45,9.07 -0.78,13.54 l -2.55,0.13 c -0.14,-0.77 -0.24,-1.55 -0.3,-2.33 l -1.14,-0.59 c -0.09,-5.76 -0.3,-11.47 -0.57,-17.05 -0.01,0.42 -0.02,0.84 -0.03,1.26 0.01,0.55 0,1.1 -0.04,1.65 l -0.55,-0.03 c -0.06,1.57 -0.12,3.15 -0.17,4.72 H 456 c -0.15,6.12 -0.48,12.26 -0.99,18.34 L 453.1,673 c -0.17,4.66 -0.36,9.4 -0.58,14.24 l -2.57,0.02 c -0.14,-2.22 -0.26,-4.45 -0.35,-6.69 l -1.05,0.08 c -0.38,-1.95 -0.72,-3.95 -1.01,-6.01 -0.1,2.25 -0.21,4.64 -0.36,7.19 h -1.32 c -0.27,6.7 -0.39,13 -0.46,18.23 l -1.28,0.13 c -0.1,2.4 -0.19,4.87 -0.15,7.28 l -0.97,0.04 c -0.05,2.73 -0.07,5.91 -0.08,7.76 -0.01,1.44 -0.01,2.56 -0.03,3.07 l -2.57,-0.03 c -0.01,-8.41 -0.06,-17.32 -0.52,-26.35 l -1.26,0.03 c -0.04,-0.7 -0.07,-1.33 -0.05,-1.87 -0.02,0 -0.05,-0.01 -0.07,-0.01 -0.55,-0.07 -1.19,-0.42 -1.12,-1.71 0.02,-0.25 0.04,-0.64 0.05,-1.11 l -0.5,-0.04 c -0.4,4.7 -0.65,9.44 -0.73,14.15 l -1.24,0.04 c -0.06,1.13 -0.13,2.27 -0.19,3.4 l -2.57,-0.08 c 0.02,-3.61 -0.18,-7.23 -0.57,-10.82 -0.28,5.18 -0.42,10.4 -0.43,15.57 l -1.51,0.02 c -0.27,5.56 -0.6,10.98 -0.99,16.32 l -2.57,-0.03 c -0.05,-0.98 -0.12,-3.12 -0.2,-5.75 -0.12,-4.06 -0.32,-10.55 -0.56,-14.57 h -0.12 c -0.14,3.39 -0.29,6.78 -0.48,10.17 l -2.57,-0.03 c -0.15,-4.9 -0.41,-9.8 -0.66,-14.7 -0.19,-3.59 -0.38,-7.26 -0.53,-10.93 L 419.99,690 c 0,-0.01 0,-0.02 -0.01,-0.04 -0.11,1.12 -0.21,2.22 -0.28,3.37 l -2.57,-0.07 c -0.03,-2.33 -0.14,-4.7 -0.26,-7.02 -0.18,5.49 -0.4,11.06 -0.74,16.56 l -2.57,-0.02 c -0.06,-1.35 -0.12,-2.71 -0.17,-4.08 l -1.25,0.02 c -0.04,-0.9 -0.08,-1.8 -0.12,-2.7 l -0.59,-0.01 c -0.18,7.22 -0.37,14.43 -0.64,21.65 l -2.57,0.03 c -0.13,-2.23 -0.3,-4.46 -0.48,-6.68 -0.09,-1.09 -0.18,-2.19 -0.26,-3.3 -0.1,-0.01 -0.2,-0.02 -0.32,-0.04 l -1.4,-0.08 c -0.11,3.74 -0.19,7.47 -0.26,11.15 -0.1,5.29 -0.21,10.58 -0.42,15.86 l -2.57,-0.02 c -0.01,-0.29 -0.01,-0.58 -0.02,-0.87 -0.07,3.68 -0.15,7.36 -0.27,11.04 h -2.57 c -0.14,-4.45 -0.26,-8.93 -0.37,-13.41 -0.09,0.89 -0.17,1.78 -0.27,2.67 l -0.68,-0.02 c -0.01,0.19 -0.02,0.39 -0.02,0.6 l -1.54,-0.03 c -0.08,1.44 -0.16,2.82 -0.24,4.12 l -0.99,0.03 c -0.02,0.65 -0.04,1.3 -0.07,1.95 4.23,5.52 8.87,10.71 13.9,15.53 l 2.5,-0.04 c 0.01,0.21 0.02,0.42 0.03,0.63 h 2.16 c 0.1,-4.85 0.27,-9.87 0.59,-14.88 l 2.57,0.08 c 0,0.67 0.01,1.33 0.02,2 l 1.42,0.03 c 0.05,6.15 0.18,11.42 0.44,16.22 0.25,-1.77 0.53,-3.79 0.56,-4.1 l 0.62,0.01 c 0.03,-1.12 0.06,-2.23 0.1,-3.35 l 2.57,-0.03 c 0.28,5.06 0.46,10.17 0.61,15.24 2.76,2 5.61,3.9 8.54,5.7 0.02,-0.42 0.04,-0.85 0.05,-1.27 l 2.41,-0.07 c 0.12,-2.04 0.27,-4.07 0.45,-6.1 l 2.57,0.03 c 0.25,3.55 0.45,7.18 0.62,10.92 0.3,0.17 0.61,0.31 0.92,0.48 0.07,-1.97 0.14,-3.94 0.17,-5.91 l 2.57,-0.08 c 0.18,2.53 0.31,5.08 0.43,7.62 0.29,0.15 0.58,0.31 0.87,0.45 0.28,-5.25 0.48,-10.5 0.67,-15.64 0.22,-5.94 0.45,-12.09 0.8,-18.14 h 0.76 c 0.13,-2.02 0.25,-4.03 0.3,-6.05 l 2.57,-0.04 c 0.23,3.61 0.49,7.24 0.76,10.84 l 1.97,0.03 c 0.17,-5.85 0.25,-11.68 0.33,-17.43 l 0.07,-4.89 2.33,-0.08 0.16,-10.75 2.57,-0.02 c 0.05,1.56 0.1,3.12 0.14,4.67 l 1.62,-0.09 c 0.76,4.97 1.16,6.43 1.36,6.78 -0.09,-0.15 -0.45,-0.47 -0.99,-0.41 l 1.43,1.26 c 0.01,0.66 0.02,1.31 0.04,1.97 l 0.55,-0.25 c 0.4,0.32 0.8,0.7 1.15,1.17 0.38,-5.31 0.85,-10.63 1.41,-15.87 l 2.54,-0.14 c 0.04,0.16 0.07,0.33 0.11,0.49 l 0.2,-11.08 2.57,-0.08 c 0.4,5.1 0.64,10.21 0.81,14.96 l 0.98,0.02 c 0,0.22 0.01,0.44 0.01,0.66 h 2.49 c 0.11,4.63 0.27,9.5 0.5,14.88 h 0.04 c -0.03,-0.61 -0.07,-1.11 -0.08,-1.31 l 0.11,-0.01 c 0.05,-1.3 0.37,-1.33 1.04,-1.39 l 0.2,0.16 c 0.31,-4.11 0.52,-8.23 0.62,-12.33 l 0.95,-0.03 c 0.04,-0.47 0.09,-0.94 0.13,-1.41 l 2.57,0.1 c 0.05,3.98 0.12,7.79 0.21,11.46 l 0.65,-0.01 c 0.13,-3.38 0.29,-6.79 0.49,-10.16 l 2.57,0.04 c 0.13,3.99 0.28,7.99 0.45,11.98 0.07,-1.51 0.13,-3.02 0.18,-4.53 l 2.57,-0.01 c 0.15,4.12 0.4,8.23 0.66,12.34 0.18,2.84 0.35,5.74 0.5,8.65 l 0.63,0.01 c 0.01,0.46 0.03,0.86 0.04,1.22 l 0.66,-0.02 c 0.63,4.13 1.15,7.86 1.58,11.31 0.18,-2.16 0.35,-4.32 0.51,-6.47 l 2.56,-0.04 c 0.02,0.19 0.04,0.38 0.06,0.57 l 2.44,0.23 c 0.03,2.47 0.1,4.94 0.18,7.41 0.06,2.01 0.12,4.05 0.16,6.1 0.9,0.34 1.09,2.18 1.3,13.21 0.03,-0.57 0.05,-1.14 0.07,-1.71 l 1.41,0.02 c 0.23,-2.75 0.47,-5.5 0.74,-8.22 l 2.57,0.06 c 0.11,2.19 0.21,4.39 0.31,6.58 0.22,4.77 0.45,9.63 0.79,14.5 0.45,0.01 0.9,0.04 1.36,0.05 0.12,-2.98 0.23,-5.96 0.32,-8.92 l 2.57,0.02 c 0.04,2.99 0.09,5.98 0.14,8.96 0.01,0 0.03,0 0.04,0 0.22,-4.9 0.49,-9.73 0.82,-14.45 l 0.81,0.01 c 0.09,-1.58 0.17,-3.16 0.25,-4.73 l 1.31,-0.01 c 0.26,-3.81 0.53,-7.66 0.83,-11.52 l 0.73,0.01 c 0.1,-2.48 0.21,-4.96 0.34,-7.43 h 2.06 c 0.03,-0.46 0.06,-0.91 0.08,-1.37 l 2.57,0.07 c 0.01,1.32 0.03,2.63 0.06,3.95 l 1,-0.03 c 0.15,1.27 0.25,2.55 0.31,3.83 0.09,0.06 0.17,0.14 0.24,0.22 0.1,-0.08 0.2,-0.15 0.31,-0.22 l 1.46,0.72 c 0.04,-1.25 0.08,-2.49 0.11,-3.74 l 1.62,-0.05 c 0.16,-3.39 0.33,-6.77 0.52,-10.15 l 2.23,0.04 c 0.08,-0.94 0.17,-1.88 0.27,-2.82 l 1.33,-0.35 0.07,-0.66 c -0.49,0.04 -0.76,0.35 -0.81,0.45 0.57,-1.11 1.41,-9.76 1.9,-30.48 l 2.57,-0.01 c 0.17,5.71 0.42,11.41 0.67,17.12 0.03,0.56 0.05,1.13 0.07,1.69 l 0.3,0.04 c 0.19,-2.04 0.42,-4.09 0.69,-6.11 l 2.56,0.12 c 0.07,2.02 0.13,4.05 0.2,6.08 l 1.94,0.02 c 0.02,0.98 0.05,1.95 0.08,2.93 0.17,-1.21 0.36,-2.46 0.58,-3.78 l 2.54,-0.02 c 0.33,1.86 0.61,3.73 0.83,5.61 l 1.33,0.01 0.06,3.32 2.08,0.06 c 0.01,0.55 0.01,1.59 -0.01,2.87 -0.01,1.33 -0.03,3.53 0,5.55 0.08,0.09 0.13,0.17 0.17,0.26 l 1.63,0.12 c 0.21,6.77 0.48,13.54 0.75,20.31 l 0.68,0.01 c 0.06,2.26 0.16,4.52 0.27,6.78 l 0.8,0.01 c 0.01,2.63 0.09,4.67 0.21,6.43 0.03,-0.18 0.06,-0.36 0.09,-0.54 l 2.27,0.15 c 0.33,-5.8 0.41,-11.61 0.5,-17.31 l 0.06,-3.63 h 2.57 l 0.16,8.99 c 0.06,3.51 0.12,7.06 0.19,10.62 l 1.79,-0.07 c 0.01,0.1 0.02,0.19 0.03,0.29 0.1,-1.66 0.19,-3.32 0.26,-4.98 l 2.09,0.01 c 0.02,-0.25 0.05,-0.5 0.07,-0.74 l 2.01,-0.01 c 0.18,-1.79 0.36,-3.58 0.48,-5.38 l 1.66,-0.02 c 0.32,-6.04 0.7,-12.46 1.19,-18.95 l 2.57,0.08 c 0.04,2.62 0.21,5.29 0.37,7.88 0.06,0.97 0.12,1.93 0.18,2.9 l 1.22,-0.03 c 0.47,5.41 0.74,10.86 0.95,16.23 3.71,-1.75 7.35,-3.64 10.9,-5.71 0.03,-5.05 0.08,-10.13 0.21,-15.18 l 2.57,-0.03 c 0.08,1.71 0.15,3.42 0.21,5.14 0.03,-0.8 0.05,-1.6 0.07,-2.41 l 2.57,-0.01 c 0.04,1.14 0.09,2.3 0.15,3.45 0.05,-0.7 0.1,-1.4 0.14,-2.12 l 0.65,-0.59 c -0.04,-0.32 -0.09,-0.6 -0.14,-0.82 -0.61,-1.51 -0.3,-1.87 -0.03,-2.17 l 1.47,-0.34 c 0.04,0.02 0.08,0.04 0.12,0.06 0.16,-2.77 0.31,-5.54 0.43,-8.31 l 2.57,0.03 c 0.05,1.91 0.12,3.82 0.22,5.73 0.02,-1.23 0.04,-2.47 0.06,-3.69 l 0.67,-0.06 c 0.12,-1.83 0.25,-3.65 0.4,-5.44 l 2.46,0.06 c 0.06,-1.35 0.08,-2.69 0.04,-3.97 l 2.53,-0.25 c 0.14,-6.25 0.23,-12.66 0.32,-19.45 l 2.57,-0.01 c 0.02,0.71 0.03,1.41 0.05,2.12 0.23,-2.99 0.43,-5.97 0.6,-8.93 l 0.92,0.02 c 0.06,-1.35 0.11,-2.69 0.14,-4.04 l 0.62,-0.04 c 0.03,-0.46 0.07,-0.92 0.1,-1.38 l 2.57,0.09 c 0,0.21 0.01,0.42 0.01,0.63 l 1.06,-0.01 c 0.03,0.64 0.07,1.28 0.1,1.92 0.17,-3.13 0.34,-6.26 0.54,-9.38 l 2.57,0.05 c 0.12,4.56 0.25,9.11 0.38,13.66 0.1,3.56 0.2,7.12 0.3,10.68 l 0.43,-0.01 c 0.06,-3.06 0.09,-6.1 0.12,-9.1 0.08,-8.12 0.16,-16.52 0.84,-24.78 l 2.57,0.09 c 0.04,3.68 0.47,7.12 1,10.63 l 0.92,0.06 c 0.07,-2.44 0.12,-4.88 0.15,-7.31 l 2.57,-0.01 c 0.01,0.85 0.03,1.66 0.05,2.44 0.1,-4.46 0.15,-8.89 0.2,-13.27 l 0.04,-3.38 2.56,-0.15 c 0.52,3.93 0.85,6.41 1.06,8.85 l 1.8,-0.03 c 0.47,4.24 1.25,6.35 1.74,7.31 0.94,0.66 1.33,1.45 1.07,2.19 l -0.61,0.38 c 0.02,1.19 0.03,2.66 0.04,4.26 0.02,3.04 0.05,8.04 0.28,10.83 h 0.03 c 0.08,-1.52 0.17,-3.04 0.23,-4.56 l 0.99,-0.04 c 0.04,-1.1 0.06,-2.21 0.09,-3.31 l 1,-0.01 c 0.19,-3.53 0.55,-4 1.29,-4.11 0.07,-1.8 0.14,-3.59 0.21,-5.39 l 2.57,-0.01 c 0.17,3.15 0.37,6.31 0.62,9.48 l 1.87,0.04 c 0.02,0.62 0.04,1.27 0.06,1.9 0.88,-1.94 1.74,-3.89 2.54,-5.89 L 638,707.54 c -0.13,-4.94 -0.2,-9.85 -0.27,-14.76 z"
   id="path36" />&#10;			<path
   class="st4"
   d="m 478.44,314.1 c 7.42,7.67 13.59,16.49 18.52,26.46 3.57,7.24 6.72,14.89 9.44,22.96 0.01,0.04 0.03,0.07 0.04,0.11 0.29,0.67 1.07,0.98 1.74,0.68 0.65,-0.28 1.09,-0.78 1.31,-1.49 4.98,-16.23 12.71,-31.27 23.42,-44.39 2.88,-3.51 6.22,-6.47 9.49,-9.62 1.24,-1.19 1.18,-2.69 0.94,-4.27 -2.1,-13.61 -5.81,-26.88 -11.11,-39.81 -3.91,-9.55 -9.06,-19.75 -15.45,-30.62 -2.26,-3.84 -6.43,-11.33 -11.87,-7.56 -1.65,1.15 -3.08,2.69 -4.28,4.62 -13.81,22.3 -24.24,47.28 -28.19,73.13 -0.24,1.59 -0.26,3.25 0.92,4.5 1.65,1.74 3.34,3.5 5.08,5.3 z"
   id="path37" />&#10;			<path
   class="st5"
   d="m 344.36,273.04 c 2.82,1.82 5.77,2.89 8.61,4.49 17.33,9.81 31.8,21.62 42.48,38.27 4.12,6.42 6.54,12.97 7.28,19.64 0.24,2.16 1.38,3.62 3.4,4.41 6.29,2.44 12.81,4.75 18.89,7.93 12.45,6.53 23.77,14.69 33.98,24.47 12.24,11.74 23.1,24.28 33.56,38.46 0.91,1.25 2.04,2.11 3.36,2.59 0.29,0.11 0.61,0.09 0.88,-0.05 1.55,-0.79 2.26,-2.08 2.13,-3.88 -0.59,-8.41 -1.86,-16.62 -3.82,-24.62 -6.37,-26.14 -20.21,-51.28 -37.15,-72.86 -6.57,-8.38 -13.8,-15.17 -21.68,-20.38 -26.26,-17.4 -56.89,-24.83 -88.48,-24.18 -1.9,0.04 -3.31,0.72 -4.22,2.05 -0.98,1.47 -0.73,2.68 0.78,3.66 z"
   id="path38" />&#10;			<path
   class="st5"
   d="m 519.6,413.36 c 0.31,0.07 0.6,0.01 0.86,-0.18 0.73,-0.51 1.32,-1.06 1.78,-1.63 4.25,-5.25 8.78,-10.94 13.59,-17.07 6.19,-7.87 13.33,-15.36 20.67,-22.45 14.87,-14.34 32.19,-25 51.96,-31.98 2.24,-0.79 4.37,-2.03 4.6,-4.79 0.45,-5.29 1.87,-10.14 4.27,-14.55 11.96,-22.05 31.44,-35.8 53.05,-47.31 4.4,-2.34 0.58,-5.8 -2.44,-5.89 -24.92,-0.75 -48.75,4.05 -71.48,14.38 -16.11,7.32 -29.1,17.29 -38.97,29.92 -21.85,27.95 -38.42,60.86 -40.79,95.64 -0.18,2.53 -0.15,5.26 2.9,5.91 z"
   id="path39" />&#10;			<path
   class="st4"
   d="m 329.84,370.1 c 1.02,0.21 3.37,0.58 7.05,1.12 15.62,2.31 29.57,8.52 41.25,19.44 1.06,0.99 2.16,1.31 3.31,0.97 3.03,-0.9 5.98,-1.78 8.85,-2.62 9.9,-2.89 20.19,-4.3 30.84,-4.21 4.86,0.04 10.03,0.18 15.5,0.41 1.87,0.08 4.63,-1.68 3.6,-3.88 -0.44,-0.95 -1.03,-1.8 -1.77,-2.54 -8.39,-8.54 -19.14,-15.31 -30.01,-20.27 -23.52,-10.75 -52.06,-11.44 -75.36,0.96 -2.04,1.08 -3.77,2.31 -5.21,3.69 -2.43,2.35 -1.68,6.2 1.95,6.93 z"
   id="path40" />&#10;			<path
   class="st4"
   d="m 612.43,356.19 c -14.06,5.26 -25.98,12.82 -35.75,22.68 -1.94,1.95 -2.58,4.44 0.26,6.21 0.36,0.22 0.75,0.32 1.17,0.31 4.49,-0.18 8.91,-0.34 13.28,-0.48 9.53,-0.3 18.71,0.58 27.57,2.5 1.34,0.29 2.69,0.54 4.01,0.88 0.2,0.05 0.39,0.12 0.59,0.17 0.53,0.14 1.03,0.3 1.55,0.44 0.91,0.25 1.81,0.52 2.71,0.78 1.96,0.56 3.95,1.08 5.88,1.68 1.74,0.55 3.34,0.13 4.82,-1.25 9.57,-8.91 21.01,-14.81 34.33,-17.69 3.76,-0.81 7.86,-1.58 12.3,-2.31 2.6,-0.43 4,-1.77 4.21,-4.04 0.04,-0.38 -0.07,-0.76 -0.31,-1.06 -1.05,-1.37 -2.29,-2.53 -3.7,-3.51 -7.84,-5.37 -17.04,-8.55 -26.4,-10.02 -15.98,-2.49 -31.5,-0.92 -46.52,4.71 z"
   id="path41" />&#10;			<path
   class="st5"
   d="m 414.55,450.77 c 0.07,0.03 0.14,0.06 0.21,0.09 0.15,0.06 0.3,0.13 0.45,0.19 0.54,0.23 1.08,0.44 1.62,0.69 2.45,1.14 4.75,2.53 7.02,4 1.2,0.78 2.4,1.58 3.59,2.39 0.05,0.03 0.1,0.07 0.15,0.1 1.79,1.23 3.74,1.5 5.69,0.41 0.84,-0.47 1.7,-0.89 2.55,-1.34 0.17,-0.09 0.34,-0.18 0.51,-0.27 2.34,-1.22 4.71,-2.38 7.11,-3.46 1.21,-0.54 2.42,-1.06 3.65,-1.56 1.04,-0.43 2.08,-0.86 3.14,-1.27 0.62,-0.24 1.24,-0.46 1.86,-0.69 0.91,-0.33 1.82,-0.64 2.74,-0.95 8.46,-2.88 17.29,-4.94 26.49,-6.16 0.64,-0.08 1.26,-0.2 1.9,-0.27 2.74,-0.33 5.58,-0.63 8.49,-0.89 1.33,-0.13 2.64,-0.84 3.43,-1.87 0.69,-0.9 0.99,-2.05 0.48,-3.3 -0.62,-1.51 -1.59,-2.98 -2.73,-4.39 -0.1,-0.13 -0.21,-0.26 -0.31,-0.38 -0.88,-1.06 -1.84,-2.07 -2.83,-3.04 -0.67,-0.65 -1.34,-1.28 -2,-1.89 -0.24,-0.22 -0.5,-0.41 -0.74,-0.62 -2.11,-1.88 -4.33,-3.64 -6.62,-5.31 -2.89,-2.1 -5.9,-4.03 -9.03,-5.79 -0.65,-0.37 -1.31,-0.73 -1.97,-1.08 -0.93,-0.49 -1.85,-0.98 -2.8,-1.44 -1.05,-0.52 -2.12,-1.02 -3.19,-1.49 -1.03,-0.46 -2.06,-0.89 -3.11,-1.31 -5.03,-2.05 -10.22,-3.73 -15.48,-4.95 -17.21,-3.99 -35.88,-3.86 -56.01,0.4 -14.67,3.1 -27.8,8.01 -39.39,14.73 -11.62,6.73 -20.72,15.61 -29.2,26.23 -2.3,2.88 -6.34,8.2 -4.26,11.76 0.03,0.04 0.04,0.09 0.07,0.14 0.77,1.21 1.69,1.97 2.76,2.28 1.12,0.32 2.39,0.16 3.84,-0.49 7.25,-3.3 14.6,-7.1 22.06,-9.72 21.92,-7.65 48.16,-8.7 69.86,0.52 z"
   id="path42" />&#10;			<path
   class="st5"
   d="m 700.2,455.51 c -0.36,-1.79 -1.09,-3.51 -2.2,-5.14 -3.52,-5.2 -7.44,-9.96 -11.73,-14.33 -0.3,-0.31 -0.59,-0.64 -0.9,-0.95 -0.84,-0.83 -1.72,-1.62 -2.58,-2.42 -0.08,-0.07 -0.15,-0.14 -0.23,-0.21 -0.11,-0.1 -0.21,-0.2 -0.32,-0.29 -3.63,-3.31 -7.5,-6.36 -11.64,-9.13 -0.41,-0.28 -0.8,-0.58 -1.22,-0.85 -3.43,-2.22 -7.04,-4.24 -10.81,-6.11 -0.38,-0.19 -0.73,-0.4 -1.12,-0.58 -0.58,-0.28 -1.16,-0.52 -1.74,-0.79 -1.24,-0.58 -2.48,-1.16 -3.73,-1.69 -0.07,-0.03 -0.14,-0.07 -0.21,-0.1 -1.42,-0.61 -2.86,-1.16 -4.3,-1.72 -0.64,-0.25 -1.28,-0.51 -1.92,-0.74 -0.29,-0.11 -0.58,-0.2 -0.86,-0.3 -2.39,-0.87 -4.81,-1.65 -7.25,-2.38 -1.43,-0.43 -2.86,-0.84 -4.31,-1.22 -0.06,-0.02 -0.12,-0.03 -0.18,-0.05 -0.84,-0.22 -1.68,-0.42 -2.53,-0.62 -0.59,-0.14 -1.17,-0.3 -1.75,-0.43 -1.3,-0.29 -2.61,-0.55 -3.92,-0.8 -0.01,0 -0.02,0 -0.03,-0.01 -0.88,-0.17 -1.75,-0.37 -2.63,-0.52 -0.4,-0.07 -0.81,-0.12 -1.21,-0.19 -1.91,-0.32 -3.82,-0.61 -5.75,-0.85 -0.06,-0.01 -0.13,-0.01 -0.19,-0.02 -1.8,-0.22 -3.61,-0.43 -5.44,-0.58 -2.16,-0.18 -4.32,-0.3 -6.49,-0.38 -23.94,-0.83 -48.45,5.08 -67.68,18.99 -1.37,0.99 -2.72,2 -4.04,3.07 -0.36,0.29 -0.7,0.62 -1.05,0.92 -1.75,1.48 -3.44,3.04 -5.08,4.66 -0.03,0.03 -0.06,0.06 -0.09,0.09 -0.78,0.78 -1.59,1.54 -2.34,2.35 -0.31,0.34 -0.72,0.82 -1.12,1.36 -1.07,1.42 -2.17,3.34 -1.87,4.66 0.23,1 0.86,1.78 1.66,2.38 1.15,0.85 2.67,1.32 4.03,1.42 0.02,0 0.03,0 0.05,0.01 4.85,0.31 9.63,0.88 14.35,1.69 0.9,0.15 1.78,0.34 2.67,0.51 0.6,0.11 1.19,0.24 1.79,0.36 0.88,0.18 1.77,0.34 2.64,0.54 1.33,0.3 2.65,0.66 3.98,1 3.44,0.89 6.86,1.89 10.22,3.06 0.86,0.3 1.7,0.62 2.55,0.94 1.98,0.73 3.94,1.49 5.89,2.32 4.31,1.83 8.56,3.87 12.74,6.16 1.19,0.65 2.54,0.86 3.81,0.46 0.39,-0.12 0.77,-0.29 1.14,-0.54 2.61,-1.74 4.8,-3.12 6.66,-4.22 1.26,-0.74 2.41,-1.37 3.33,-1.82 12.52,-6 26.55,-8.56 40.57,-8.27 1.02,0.02 2.04,0.08 3.06,0.13 13.44,0.68 26.76,3.93 38.6,9.34 3.78,1.73 7.88,3.71 12.3,5.93 2.45,1.23 4.65,1.21 6.6,-0.08 1.54,-1.02 2.16,-2.36 1.82,-4.02 z"
   id="path43" />&#10;			<path
   class="st3"
   d="m 569.08,475.98 c -0.18,-1.82 -0.34,-3.5 -0.46,-6.06 h -0.38 c -0.03,1.34 -0.06,2.68 -0.09,4.02 l -2.57,0.07 -0.25,-3.4 -0.97,0.17 c -0.04,0.63 -0.09,1.26 -0.14,1.89 l -2.57,-0.05 c -0.03,-0.68 -0.06,-1.37 -0.09,-2.05 l -1.69,-0.01 c -0.04,-2.47 -0.15,-4.96 -0.25,-7.44 -4.97,-2.02 -10.11,-3.82 -15.46,-5.31 -7.09,-1.98 -14.36,-3.33 -21.71,-4.09 -0.26,2.25 -0.51,4.5 -0.67,6.76 l -2.57,-0.08 c -0.01,-1.13 -0.02,-2.12 -0.03,-2.99 -0.16,2.18 -0.37,4.35 -0.62,6.52 l -2.38,-0.1 c -0.03,0.65 -0.06,1.3 -0.08,1.95 -0.12,2.96 -0.24,5.93 -0.39,8.89 h -1.53 c -0.1,1.35 -0.18,2.7 -0.25,4.06 h -0.61 l -0.1,3.37 -2.57,0.06 c -0.32,-4.24 -0.58,-8.52 -0.78,-12.8 -0.09,0.85 -0.18,1.66 -0.26,2.47 -0.38,3.51 -0.74,6.83 -1.02,12.33 l -2.57,0.02 c -0.14,-2.1 -0.27,-4.21 -0.39,-6.32 -0.1,0.76 -0.18,1.53 -0.25,2.29 l -2.57,-0.08 c -0.01,-0.2 -0.01,-0.4 -0.02,-0.59 l -0.68,0.03 c -0.07,-0.59 -0.08,-1.33 -0.06,-2.04 l -0.66,-0.05 c -0.36,-5.17 -0.65,-10.41 -0.92,-16.15 l -0.36,0.03 c -0.02,0.37 -0.03,0.81 -0.04,1.06 -0.01,0.5 -0.04,0.9 -0.07,1.03 l -1.26,-0.1 c -0.05,0.45 -0.1,0.89 -0.15,1.34 l -0.89,-0.03 c -0.06,1.12 -0.12,2.23 -0.17,3.33 l -2.57,-0.05 c -0.02,-5.03 -0.55,-10.16 -1.06,-14.07 -0.75,0.08 -1.49,0.17 -2.24,0.26 -0.06,1.45 -0.12,2.9 -0.18,4.37 l -2.57,-0.02 c -0.03,-1.32 -0.07,-2.64 -0.1,-3.96 -0.16,0.02 -0.32,0.05 -0.49,0.07 -0.02,0.41 -0.04,0.82 -0.06,1.22 l -2.57,-0.02 c -0.01,-0.26 -0.04,-0.53 -0.06,-0.79 -33.24,5.6 -65.47,23.45 -89.1,53.67 -1.44,1.84 -2.82,3.76 -4.16,5.7 -0.02,0.56 -0.04,1.12 -0.07,1.69 l -1.07,-0.01 c -6.43,9.63 -11.64,20.24 -15.49,30.73 0.03,0.1 0.06,0.22 0.09,0.32 0.04,0.14 0.07,0.23 0.08,0.26 l -0.02,0.01 c 0.1,0.54 0.09,0.98 -0.2,1.3 0.73,4.92 0.84,5.89 0.18,6.22 0.03,3.4 0.29,6.92 0.78,10.52 0.11,-2.02 0.2,-4.07 0.23,-6.08 l 2.57,-0.07 c 0.16,2.23 0.3,4.49 0.43,6.76 0.08,-1.12 0.16,-2.23 0.21,-3.34 l 2.57,-0.03 c 0.07,0.88 0.66,5.19 1.14,8.65 0.09,0.63 0.17,1.19 0.23,1.7 0.14,-3.65 0.25,-7.31 0.34,-10.96 h 2.57 c 0.01,0.41 0.01,1.17 0,2.12 -0.01,1.02 -0.01,2.76 0.01,4.49 l 2.13,0.14 c 0.11,2.26 0.3,4.51 0.49,6.77 h 0.94 c 0.08,1.79 0.14,3.59 0.21,5.38 l 0.12,-0.01 c 0.09,-2.69 0.19,-5.39 0.32,-8.08 l 2.56,-0.1 c 0.1,0.81 0.19,1.61 0.28,2.42 0.24,-4.93 0.49,-9.69 0.77,-14.72 -0.5,-0.43 -0.63,-1.01 0.21,-3.53 0.03,-0.56 0.07,-1.13 0.1,-1.71 l 0.85,-0.94 c 0.1,-0.25 0.2,-0.52 0.3,-0.79 l 1.59,0.21 c 0.05,-1.05 0.09,-2.11 0.11,-3.16 l 0.67,-0.03 c 0.01,-0.2 0.03,-0.43 0.04,-0.68 h 1.7 l 0.08,-4.7 2.57,-0.12 c 0.07,0.64 0.14,1.26 0.21,1.85 0.05,-1.1 0.23,-2.85 0.53,-5.65 0.29,-2.76 0.59,-5.56 0.63,-6.3 l 2.57,0.05 c 0.09,4.97 0.19,9.94 0.3,14.91 l 1.92,-0.09 c 0.13,-4.28 0.3,-8.58 0.57,-12.84 l 2.57,0.03 c 0.06,1.49 0.12,2.98 0.17,4.47 0.04,-0.95 0.09,-1.9 0.14,-2.85 0.12,-2.56 0.25,-5.13 0.33,-7.7 l 2.57,0.02 c 0.02,1.04 0.04,2.07 0.06,3.11 0.22,-4.21 0.42,-8.43 0.59,-12.62 l 2.57,-0.02 c 0.24,4.27 0.42,8.57 0.54,12.89 l 1.06,-0.02 c 0.53,-1.66 1.03,-3.59 1.18,-5.46 l 2.57,0.02 c 0.17,2.45 0.41,4.9 0.66,7.34 0.01,0.04 0.01,0.07 0.01,0.1 l 1.1,-0.06 c 0.77,6.48 1.1,13.07 1.4,19.48 0.07,-2.26 0.01,-5.35 -0.03,-7.71 -0.06,-2.96 -0.11,-5.76 -0.01,-7.63 l 0.77,-0.06 c -0.04,-0.8 0.08,-1.61 1.12,-1.72 0.25,-0.03 0.46,-0.05 0.63,0 0.4,-5.03 0.76,-10.1 1.05,-15.15 l 2.55,-0.18 c 0.07,0.35 0.14,0.68 0.2,0.99 l 0.54,0.6 c 0.03,1.21 0.06,2.43 0.09,3.64 0.06,-2.8 0.09,-5.59 0.11,-8.35 0.02,-2.27 0.04,-4.53 0.08,-6.79 l 2.57,-0.03 c 0.12,2.94 0.35,5.92 0.58,8.81 l 0.85,0.02 c 0,0.19 0.01,0.38 0.01,0.56 l 2.48,0.12 c 0.03,1.77 0.09,3.55 0.17,5.33 l 0.92,0.04 c 0.42,-2.06 0.72,-3.32 0.97,-4.1 0.09,-2.92 0.21,-5.84 0.36,-8.76 l 1.04,-0.03 c 0.27,-4.99 0.64,-9.98 1.11,-14.91 l 0.98,0.01 c 0.04,-1.32 0.07,-2.64 0.09,-3.96 l 2.57,-0.09 c 0.38,4.52 0.61,9.1 0.77,13.64 l 1.06,-0.02 c 0.31,-4.62 0.73,-9.15 1.32,-13.68 l 1.04,0.05 c 0.2,-3.36 0.32,-6.72 0.37,-10.06 l 2.57,-0.01 c 0.04,1.56 0.08,3.13 0.12,4.69 l 0.27,-0.01 c 0.09,-2.5 0.15,-5.47 0.18,-7.18 0.03,-1.37 0.05,-2.45 0.07,-2.95 l 2.57,-0.05 c 0.17,2.02 0.32,4.05 0.45,6.08 h 1.3 c 0.26,-2.94 0.49,-5.87 0.68,-8.77 l 0.95,0.02 c 0.05,-0.89 0.09,-1.78 0.12,-2.68 l 2.43,-0.22 c 0.13,-1.98 0.27,-3.96 0.42,-5.94 l 2.57,0.07 c 0.04,1.52 0.08,3.04 0.12,4.56 0.9,0.08 1.16,0.7 1.38,6.24 l 1.12,0.02 c 0.05,-1.8 0.1,-3.6 0.15,-5.4 h 2.57 c 0.05,1.58 0.1,3.15 0.15,4.73 l 0.93,0.09 c -0.05,2.18 0.02,4.37 0.14,6.54 0.59,-4.4 0.79,-8.59 0.86,-11.35 l 0.71,-0.05 c 0.01,-0.03 0.01,-0.06 0.02,-0.1 l 0.74,0.03 c -0.03,0.01 -0.07,0.01 -0.1,0.02 l 0.2,-0.02 h 0.07 v -0.01 l 0.91,-0.07 c 0.01,0.04 0.02,0.08 0.02,0.12 l 0.71,0.03 c 0.24,3.83 0.59,7.67 1.04,11.51 l 2.52,-0.01 c 0.1,1.36 0.19,2.72 0.28,4.09 l 0.79,-0.01 c 0.03,0.46 0.06,0.92 0.08,1.38 l 2.05,-0.06 c 0.3,3.14 0.51,6.29 0.66,9.44 l 1.76,-0.28 c 0.13,0.36 0.25,0.69 0.35,0.99 l 0.81,0.77 c 0.11,6.19 0.23,12.38 0.36,18.58 0.28,-2.27 0.61,-5.1 0.99,-9.19 l 2.57,0.04 c 0.16,2.51 0.29,5.05 0.4,7.58 l 2.09,-0.24 c 0.65,4.76 1.15,9.74 1.51,15.01 l 1.35,-0.02 c 0.08,1.3 0.15,2.62 0.2,3.94 0.26,-4.96 0.65,-9.93 1.16,-14.83 l 2.57,0.11 0.03,1.54 c 0.07,3.96 0.14,7.98 0.31,12.01 l 2.5,-0.19 c 0.69,4.24 1.21,9.82 1.64,15.69 h 0.87 c 0,0.05 0.01,0.1 0.01,0.14 0.07,-1.86 0.17,-3.71 0.26,-5.57 0.16,-3.14 0.32,-6.27 0.37,-9.41 l 2.57,-0.06 c 0.05,0.68 0.09,1.37 0.13,2.06 l 1.72,0.01 c 0.07,-1.14 0.14,-2.27 0.21,-3.41 l 1.96,-0.06 c 0.1,-2.21 0.18,-4.44 0.18,-6.64 l 2.57,-0.03 c 0.01,0.49 0.03,0.93 0.04,1.32 l 0.67,0.01 c 0.04,0.83 0.09,1.65 0.15,2.48 0.16,-0.74 0.31,-1.7 0.49,-3.25 l 2.56,0.04 c 0,0.02 0,0.04 0.01,0.06 l 0.5,0.02 c 0.04,-1.17 0.09,-2.51 0.14,-4.06 l 2.41,-0.01 c 0.1,-1.66 0.19,-3.41 0.29,-5.19 0.38,-7.06 0.77,-14.36 1.6,-19.34 0.1,-3.66 0.21,-7.5 0.34,-11.34 l 2.57,0.02 c 0.04,2.21 0.16,4.42 0.3,6.63 l 1.81,-0.14 c 0,0 0,0 0,0 h 0.01 l 0.34,-0.03 c 0.01,0.01 0.01,0.03 0.01,0.04 l 2.16,0.1 c 0.04,0.22 0.07,0.44 0.09,0.67 l 0.99,0.12 c 0.27,4.48 0.46,9.01 0.58,13.55 h 0.49 c 0.1,1.8 0.2,3.6 0.31,5.4 h 0.02 c 0.12,-5 0.47,-10.01 1.03,-14.95 l 0.55,0.05 c 0.05,-1.12 0.1,-2.23 0.16,-3.35 h 2.57 c 0.05,0.99 0.1,2.85 0.15,5.03 0.07,3.1 0.19,8.02 0.38,11.18 l 1.25,0.05 c 0.01,0.21 0.02,0.41 0.02,0.62 l 1.76,0.08 c 0.02,0.92 0.02,2.44 0.02,4.25 0,3.22 -0.01,8.83 0.18,12.48 l 1.94,0.05 c 0.13,0.94 0.41,2.92 0.61,4.24 l 0.46,0.61 c 0.24,4.45 0.44,8.97 0.58,13.49 l 0.76,0.04 c 0.14,-1.14 0.27,-2.28 0.37,-3.43 l 0.89,0.03 c 0.21,-4.57 0.37,-9.14 0.52,-13.62 0.11,-3.35 0.23,-6.69 0.36,-10.04 h 1 c 0.03,-0.45 0.05,-0.9 0.07,-1.35 l 2.57,0.08 c -0.06,3.69 0.06,7.45 0.18,11.09 0.04,1.22 0.08,2.45 0.11,3.67 l 0.58,0.02 c 0.05,-1.11 0.09,-2.22 0.12,-3.33 l 2.57,-0.05 0.03,0.53 c 0.09,-0.86 0.17,-1.73 0.27,-2.61 l 2.56,0.05 c 0,0.02 0,0.04 0.01,0.06 l 1.07,0.02 c 0.01,0.71 0.01,1.41 0.02,2.12 l 2.12,0.56 c 0.01,0.21 0.02,0.43 0.02,0.65 l 1.34,0.01 c 0.4,-3.18 0.75,-6.36 1.06,-9.53 l 2.57,0.09 c 0.18,6.88 0.41,13.66 0.69,20.3 l 2.17,-0.01 c 0.08,1.76 0.15,3.51 0.22,5.27 l 0.47,-0.07 c 0.1,0.47 0.14,0.93 0.11,1.36 0.13,1.87 0.25,3.75 0.36,5.63 h 1.35 c 0.02,0.67 0.05,1.34 0.07,2.02 l 1,0.01 c 0.03,0.93 0.07,1.85 0.11,2.78 0.07,-1.15 0.12,-2.3 0.17,-3.46 l 2.57,0.01 c 0.01,0.23 0.02,0.47 0.02,0.7 l 1.29,-0.03 c 0.26,-3.86 0.49,-7.72 0.72,-11.5 l 0.38,-6.13 2.31,0.03 c 0.06,-2.48 0.12,-4.95 0.18,-7.41 l 1.93,0.01 c 0.08,-1.79 0.15,-3.61 0.21,-5.45 l 2.56,-0.11 c 0.15,1.23 0.29,2.37 0.41,3.47 l 0.1,-0.01 c 0.03,-0.58 0.06,-1.17 0.09,-1.75 0.19,-3.62 0.38,-7.36 0.41,-11.04 l 1.99,-0.03 c 0.15,-3.1 0.31,-6.26 0.51,-9.52 l 2.56,-0.09 c 0.08,0.63 0.16,1.26 0.23,1.89 0.03,-1.48 0.06,-2.96 0.06,-4.43 l 0.95,-0.08 c 0.15,-1.38 0.31,-2.76 0.48,-4.14 l 1.22,0.05 c 0.21,-1.8 0.42,-3.61 0.56,-5.42 l 2.57,0.07 c 0.03,1.09 -0.13,3.22 -0.3,5.31 l 0.12,0.01 c 0.06,-0.62 0.12,-1.23 0.17,-1.84 0.24,-2.53 0.47,-5.05 0.65,-7.59 l 1.53,0.03 c 0.07,-1.13 0.15,-2.27 0.22,-3.41 -4.75,-4.41 -9.85,-8.57 -15.3,-12.39 -0.3,4.98 -0.63,10.03 -1.01,15.27 l -1.39,-0.03 c -0.03,0.66 -0.05,1.31 -0.07,1.98 0.01,0.01 0.02,0.03 0.03,0.04 l -4.15,-0.2 -0.4,25.48 c 0,0 0,0 0,0 l -0.08,5.15 -2.15,0.93 c -0.11,-0.1 -0.2,-0.16 -0.3,-0.2 l 0.38,-32.9 c -0.79,-0.41 -1.64,-0.8 -2.56,-1.18 l -0.79,-1.02 c -0.04,-0.27 -0.06,-0.53 -0.09,-0.78 l -2.42,-0.07 c 0,-0.18 0,-0.33 -0.01,-0.47 l -1.07,-0.17 c -0.03,-0.9 -0.07,-1.81 -0.12,-2.71 l -1.66,0.02 c -0.24,-6.25 -0.52,-9.14 -0.76,-11.68 z"
   id="path44" />&#10;		</g>&#10;	</g>&#10;</g>&#10;</svg>
