<?xml version="1.0" encoding="UTF-8" standalone="no"?>
<!DOCTYPE svg PUBLIC "-//W3C//DTD SVG 1.1//EN" "http://www.w3.org/Graphics/SVG/1.1/DTD/svg11.dtd">
<svg width="100%" height="100%" viewBox="0 0 497 497" version="1.1" xmlns="http://www.w3.org/2000/svg" xmlns:xlink="http://www.w3.org/1999/xlink" xml:space="preserve" xmlns:serif="http://www.serif.com/" style="fill-rule:evenodd;clip-rule:evenodd;stroke-linecap:round;">
    <g id="figure_1" transform="matrix(1,0,0,1,-111.969,-39.9685)">
        <g transform="matrix(0.963039,0,0,0.975872,-13.8045,24.1512)">
            <ellipse cx="388.503" cy="267.247" rx="247.817" ry="235.579" style="fill:rgb(235,235,235);"/>
        </g>
        <g id="line2d_8" transform="matrix(2.58753,0,0,2.58753,-582.844,-0.250746)">
            <g id="axes_2">
                <g id="line2d_81" serif:id="line2d_8">
                    <path d="M272.848,108.511L316.973,108.404L317.352,108.358L318.407,108.247L318.843,108.213L320.873,108.323L321.125,108.381L321.55,108.488L321.745,108.557L322.089,108.664L322.272,108.746L322.571,108.851L322.743,108.922L323.029,109.031L323.213,109.121L323.523,109.227L323.706,109.309L324.05,109.413L324.245,109.477L324.911,109.587L325.312,109.59L326.7,109.066L326.86,108.933L327.01,108.825L327.17,108.668L327.285,108.584L327.445,108.408L327.549,108.316L327.709,108.124L327.824,108.025L327.973,107.82L328.088,107.715L328.237,107.501L328.363,107.393L328.512,107.176L328.627,107.067L328.776,106.851L328.891,106.744L329.04,106.535L329.166,106.433L329.315,106.237L329.43,106.144L329.579,105.968L329.705,105.886L329.854,105.736L330.015,105.638L330.175,105.527L330.416,105.425L330.588,105.376L331.231,105.469L331.414,105.611L331.54,105.686L331.701,105.864L331.804,105.968L331.965,106.206L332.033,106.272L332.194,106.56L332.251,106.639L332.4,106.975L332.481,107.065L332.63,107.448L332.71,107.549L332.859,107.975L332.882,107.975L333.031,108.431L333.066,108.431L333.215,108.916L333.238,108.916L333.387,109.424L333.421,109.424L333.57,109.952L333.605,109.952L333.754,110.495L333.777,110.495L333.926,111.048L333.96,111.048L334.109,111.605L334.144,111.605L334.293,112.16L334.316,112.16L334.465,112.707L334.499,112.707L334.649,113.239L334.672,113.239L334.821,113.75L334.855,113.75L335.004,114.233L335.039,114.233L335.188,114.68L335.256,114.785L335.406,115.179L335.486,115.27L335.635,115.599L335.704,115.673L335.853,115.928L335.979,116.031L336.128,116.186L336.782,116.111L336.943,115.898L337.011,115.831L337.172,115.505L337.229,115.41L337.39,114.97L337.413,114.97L337.573,114.439L337.585,114.439L337.734,113.818L337.768,113.818L337.918,113.109L337.952,113.109L338.101,112.316L338.124,112.316L338.273,111.444L338.308,111.444L338.457,110.498L338.491,110.498L338.64,109.485L338.663,109.485L338.812,108.412L338.847,108.412L338.996,107.289L339.019,107.289L339.168,106.126L339.202,106.126L339.351,104.932L339.386,104.932L339.535,103.721L339.558,103.721L339.707,102.503L339.741,102.503L339.89,101.293L339.925,101.293L340.074,100.103L340.097,100.103L340.246,98.947L340.28,98.947L340.429,97.84L340.452,97.84L340.602,96.794L340.636,96.794L340.785,95.826L340.819,95.826L340.969,94.947L340.991,94.947L341.141,94.173L341.175,94.173L341.324,93.514L341.359,93.514L341.508,92.984L341.576,92.873L341.726,92.519L341.806,92.454L341.943,92.292L342.299,92.403L342.46,92.702L342.517,92.804L342.678,93.325L342.701,93.325L342.861,94.025L342.873,94.025L343.033,94.904L343.056,94.904L343.205,95.959L343.24,95.959L343.389,97.186L343.412,97.186L343.561,98.578L343.595,98.578L343.744,100.128L343.779,100.128L343.928,101.825L343.951,101.825L344.1,103.655L344.134,103.655L344.283,105.606L344.306,105.606L344.455,107.659L344.49,107.659L344.639,109.798L344.673,109.798L344.822,112.003L344.845,112.003L344.995,114.252L345.029,114.252L345.178,116.524L345.212,116.524L345.362,118.795L345.385,118.795L345.534,121.041L345.568,121.041L345.717,123.238L345.752,123.238L345.901,125.36L345.924,125.36L346.073,127.383L346.107,127.383L346.256,129.281L346.279,129.281L346.428,131.031L346.463,131.031L346.612,132.609L346.646,132.609L346.795,133.993L346.818,133.993L346.967,135.162L347.002,135.162L347.151,136.097L347.185,136.097L347.334,136.78L347.357,136.78L347.495,137.119L347.633,137.301L347.759,137.324L348.252,135.984L348.413,134.933L348.436,134.933L348.596,133.581L348.619,133.581L348.768,131.935L348.791,131.935L348.94,130.003L348.975,130.003L349.124,127.798L349.147,127.798L349.296,125.334L349.33,125.334L349.479,122.63L349.514,122.63L349.663,119.708L349.686,119.708L349.835,116.592L349.869,116.592L350.018,113.309L350.053,113.309L350.202,109.89L350.225,109.89L350.374,106.367L350.408,106.367L350.557,102.772L350.58,102.772L350.73,99.143L350.764,99.143L350.913,95.516L350.947,95.516L351.097,91.928L351.12,91.928L351.269,88.418L351.303,88.418L351.452,85.024L351.487,85.024L351.636,81.784L351.659,81.784L351.808,78.736L351.842,78.736L351.991,75.915L352.026,75.915L352.175,73.357L352.198,73.357L352.347,71.092L352.381,71.092L352.53,69.152L352.553,69.152L352.702,67.564L352.737,67.564L352.886,66.351L352.92,66.351L353.069,65.535L353.092,65.535L353.23,65.193L353.356,65.088L353.459,65.153L353.666,65.792L353.677,65.792L353.838,66.796L353.861,66.796L354.021,68.236L354.033,68.236L354.193,70.107L354.216,70.107L354.366,72.397L354.4,72.397L354.549,75.09L354.572,75.09L354.721,78.166L354.755,78.166L354.905,81.6L354.928,81.6L355.077,85.363L355.111,85.363L355.26,89.423L355.295,89.423L355.444,93.742L355.467,93.742L355.616,98.28L355.65,98.28L355.799,102.995L355.834,102.995L355.983,107.841L356.006,107.841L356.155,112.77L356.189,112.77L356.338,117.732L356.373,117.732L356.522,122.679L356.545,122.679L356.694,127.558L356.728,127.558L356.877,132.319L356.9,132.319L357.05,136.911L357.084,136.911L357.233,141.285L357.267,141.285L357.417,145.393L357.439,145.393L357.589,149.19L357.623,149.19L357.772,152.632L357.807,152.632L357.956,155.682L357.979,155.682L358.128,158.301L358.162,158.301L358.311,160.459L358.334,160.459L358.483,162.129L358.518,162.129L358.667,163.287L358.701,163.287L358.839,163.916L358.919,163.99L359.011,164.034L359.034,164.005L359.103,163.942L359.309,163.113L359.321,163.113L359.481,161.835L359.504,161.835L359.665,160.019L359.688,160.019L359.848,157.678L359.86,157.678L360.009,154.833L360.043,154.833L360.192,151.507L360.227,151.507L360.376,147.73L360.399,147.73L360.548,143.539L360.582,143.539L360.731,138.971L360.754,138.971L360.903,134.071L360.938,134.071L361.087,128.887L361.121,128.887L361.27,123.468L361.293,123.468L361.443,117.87L361.477,117.87L361.626,112.148L361.66,112.148L361.81,106.358L361.832,106.358L361.982,100.56L362.016,100.56L362.165,94.813L362.188,94.813L362.337,89.175L362.372,89.175L362.521,83.703L362.555,83.703L362.704,78.455L362.727,78.455L362.876,73.483L362.911,73.483L363.06,68.839L363.094,68.839L363.243,64.571L363.266,64.571L363.415,60.724L363.45,60.724L363.599,57.338L363.622,57.338L363.771,54.447L363.805,54.447L363.954,52.082L363.989,52.082L364.138,50.267L364.161,50.267L364.31,49.022L364.344,49.022L364.482,48.469L364.608,48.248L364.746,48.359L364.918,49.022L364.929,49.022L365.09,50.267L365.101,50.267L365.262,52.082L365.285,52.082L365.446,54.447L365.468,54.447L365.618,57.338L365.641,57.338L365.79,60.724L365.824,60.724L365.973,64.571L366.008,64.571L366.157,68.839L366.18,68.839L366.329,73.483L366.363,73.483L366.512,78.455L366.535,78.455L366.684,83.703L366.719,83.703L366.868,89.175L366.902,89.175L367.051,94.813L367.074,94.813L367.223,100.56L367.258,100.56L367.407,106.358L367.441,106.358L367.59,112.148L367.613,112.148L367.762,117.87L367.797,117.87L367.946,123.468L367.969,123.468L368.118,128.887L368.152,128.887L368.302,134.071L368.336,134.071L368.485,138.971L368.508,138.971L368.657,143.539L368.692,143.539L368.841,147.73L368.875,147.73L369.024,151.507L369.047,151.507L369.196,154.833L369.231,154.833L369.38,157.678L369.414,157.678L369.563,160.019L369.586,160.019L369.735,161.835L369.77,161.835L369.919,163.113L369.942,163.113L370.079,163.713L370.206,164.005L370.389,163.916L370.561,163.287L370.573,163.287L370.733,162.129L370.756,162.129L370.917,160.459L370.928,160.459L371.089,158.301L371.112,158.301L371.261,155.682L371.295,155.682L371.444,152.632L371.467,152.632L371.616,149.19L371.651,149.19L371.8,145.393L371.834,145.393L371.983,141.285L372.006,141.285L372.156,136.911L372.19,136.911L372.339,132.319L372.362,132.319L372.511,127.558L372.545,127.558L372.695,122.679L372.729,122.679L372.878,117.732L372.901,117.732L373.05,112.77L373.085,112.77L373.234,107.841L373.268,107.841L373.417,102.995L373.44,102.995L373.589,98.28L373.624,98.28L373.773,93.742L373.796,93.742L373.945,89.423L373.979,89.423L374.128,85.363L374.163,85.363L374.312,81.6L374.335,81.6L374.484,78.166L374.518,78.166L374.667,75.09L374.702,75.09L374.851,72.397L374.874,72.397L375.023,70.107L375.057,70.107L375.207,68.236L375.229,68.236L375.379,66.796L375.413,66.796L375.562,65.792L375.597,65.792L375.734,65.226L375.814,65.153L375.941,65.096L376.044,65.193L376.239,65.892L376.262,65.892L376.422,66.909L376.445,66.909L376.606,68.313L376.629,68.313L376.789,70.08L376.801,70.08L376.95,72.186L376.984,72.186L377.133,74.601L377.156,74.601L377.306,77.295L377.34,77.295L377.489,80.234L377.523,80.234L377.673,83.382L377.696,83.382L377.845,86.704L377.879,86.704L378.028,90.161L378.063,90.161L378.212,93.714L378.235,93.714L378.384,97.327L378.418,97.327L378.567,100.96L378.602,100.96L378.751,104.576L378.774,104.576L378.923,108.139L378.957,108.139L379.106,111.615L379.129,111.615L379.278,114.969L379.313,114.969L379.462,118.172L379.496,118.172L379.645,121.194L379.668,121.194L379.817,124.01L379.852,124.01L380.001,126.597L380.035,126.597L380.185,128.934L380.207,128.934L380.357,131.004L380.391,131.004L380.54,132.794L380.563,132.794L380.712,134.294L380.747,134.294L380.896,135.496L380.93,135.496L381.079,136.397L381.102,136.397L381.251,136.995L381.332,137.098L381.469,137.295L381.595,137.327L382.089,136.097L382.249,135.162L382.272,135.162L382.433,133.993L382.456,133.993L382.605,132.609L382.628,132.609L382.777,131.031L382.811,131.031L382.96,129.281L382.983,129.281L383.132,127.383L383.167,127.383L383.316,125.36L383.35,125.36L383.499,123.238L383.522,123.238L383.671,121.041L383.706,121.041L383.855,118.795L383.889,118.795L384.038,116.524L384.061,116.524L384.21,114.252L384.245,114.252L384.394,112.003L384.417,112.003L384.566,109.798L384.6,109.798L384.75,107.659L384.784,107.659L384.933,105.606L384.956,105.606L385.105,103.655L385.14,103.655L385.289,101.825L385.323,101.825L385.472,100.128L385.495,100.128L385.644,98.578L385.679,98.578L385.828,97.186L385.851,97.186L386,95.959L386.034,95.959L386.183,94.904L386.218,94.904L386.367,94.025L386.39,94.025L386.539,93.325L386.573,93.325L386.722,92.804L386.803,92.702L386.952,92.403L387.112,92.292L387.25,92.276L387.778,93.104L387.938,93.667L387.961,93.667L388.11,94.356L388.145,94.356L388.294,95.158L388.317,95.158L388.466,96.06L388.5,96.06L388.649,97.049L388.684,97.049L388.833,98.111L388.856,98.111L389.005,99.232L389.039,99.232L389.188,100.398L389.223,100.398L389.372,101.594L389.395,101.594L389.544,102.807L389.578,102.807L389.728,104.025L389.75,104.025L389.9,105.233L389.934,105.233L390.083,106.42L390.118,106.42L390.267,107.574L390.29,107.574L390.439,108.685L390.473,108.685L390.622,109.744L390.657,109.744L390.806,110.741L390.829,110.741L390.978,111.669L391.012,111.669L391.161,112.522L391.184,112.522L391.333,113.294L391.368,113.294L391.517,113.981L391.551,113.981L391.7,114.58L391.723,114.58L391.872,115.088L391.907,115.088L392.056,115.505L392.125,115.595L392.274,115.898L392.354,115.96L392.503,116.15L392.71,116.254L392.87,116.273L393.111,116.186L393.283,116.031L393.386,115.928L393.547,115.673L393.604,115.599L393.765,115.27L393.834,115.179L393.983,114.785L394.052,114.68L394.201,114.233L394.235,114.233L394.384,113.75L394.419,113.75L394.568,113.239L394.591,113.239L394.74,112.707L394.774,112.707L394.923,112.16L394.958,112.16L395.107,111.605L395.13,111.605L395.279,111.048L395.313,111.048L395.463,110.495L395.497,110.495L395.646,109.952L395.669,109.952L395.818,109.424L395.853,109.424L396.002,108.916L396.025,108.916L396.174,108.431L396.208,108.431L396.357,107.975L396.438,107.865L396.587,107.448L396.655,107.349L396.805,106.975L396.885,106.887L397.034,106.56L397.103,106.485L397.252,106.206L397.332,106.143L397.481,105.915L397.596,105.816L397.745,105.647L397.917,105.547L398.066,105.448L399.121,105.552L399.282,105.669L399.431,105.772L399.592,105.926L399.706,106.01L399.867,106.19L399.97,106.285L400.131,106.484L400.246,106.586L400.395,106.797L400.509,106.904L400.658,107.121L400.785,107.23L400.934,107.447L401.048,107.555L401.198,107.768L401.312,107.872L401.461,108.075L401.588,108.173L401.737,108.363L401.851,108.453L402,108.626L402.127,108.708L402.276,108.862L402.436,108.968L402.597,109.097L402.746,109.184L402.907,109.287L403.159,109.394L403.331,109.463L403.503,109.517L405.212,109.413L405.407,109.341L405.705,109.243L405.877,109.175L406.153,109.067L406.325,108.995L406.611,108.886L406.795,108.798L407.093,108.696L407.265,108.632L407.586,108.528L407.781,108.462L408.217,108.36L408.435,108.314L409.387,108.204L410.029,108.197L411.44,108.307L411.819,108.352L412.84,108.461L413.253,108.503L456.357,108.511" style="fill:none;fill-rule:nonzero;stroke:rgb(2,158,115);stroke-width:1.5px;"/>
                </g>
            </g>
        </g>
    </g>
</svg>
